<?xml version="1.0" standalone="no"?>
<!DOCTYPE svg PUBLIC "-//W3C//DTD SVG 1.1//EN" "http://www.w3.org/Graphics/SVG/1.1/DTD/svg11.dtd" >
<svg>
<metadata>
Created by FontForge 20090622 at Thu May 24 04:39:49 2018
 By deploy user
Copyright (c) 2017 by TypeType. Designers Ivan Gladkikh, Pavel Emelyanov. Technical designers Olexa Volochay, Nadyr Rakhimov, Dmitriy Greshnev. All rights reserved.
</metadata>
<defs>
<font id="TTNorms-Bold" horiz-adv-x="1228" >
  <font-face 
    font-family="TT Norms"
    font-weight="700"
    font-stretch="normal"
    units-per-em="2048"
    panose-1="2 0 8 3 4 0 0 2 0 4"
    ascent="1638"
    descent="-410"
    x-height="1004"
    cap-height="1434"
    bbox="-113 -471 2171 1997"
    underline-thickness="102"
    underline-position="-714"
    unicode-range="U+000D-U+FB03"
  />
<missing-glyph horiz-adv-x="748" 
d="M68 0v1365h544v-1365h-544zM136 68h408v1229h-408v-1229z" />
    <glyph glyph-name="uniFB01" unicode="fi" horiz-adv-x="1259" 
d="M41 727v246h143v133q0 348 318 348q45 0 91 -8t69 -16l24 -7v-235q-41 20 -102 20q-53 0 -88 -32.5t-35 -79.5v-123h645v-973h-277v727h-368v-727h-277v727h-143zM809 1290q0 69 42.5 111.5t111.5 42.5q76 0 119.5 -42t43.5 -112t-43.5 -111.5t-119.5 -41.5
q-69 0 -111.5 42t-42.5 111z" />
    <glyph glyph-name="uniFB03" unicode="ffi" horiz-adv-x="1904" 
d="M41 727v246h143v102q0 348 318 348q45 0 91 -7.5t69 -15.5l24 -7v-236q-41 21 -102 21q-53 0 -88 -33t-35 -80v-92h368v143q0 348 318 348q45 0 91 -7.5t70 -14.5l23 -8v-236q-41 21 -102 21q-53 0 -88 -33t-35 -80v-133h645v-973h-276v727h-369v-727h-277v727h-368v-727
h-277v727h-143zM1454 1290q0 69 42.5 111.5t111.5 42.5q76 0 120 -42t44 -112t-44 -111.5t-120 -41.5q-69 0 -111.5 42t-42.5 111z" />
    <glyph glyph-name=".notdef" horiz-adv-x="748" 
d="M68 0v1365h544v-1365h-544zM136 68h408v1229h-408v-1229z" />
    <glyph glyph-name="glyph1" horiz-adv-x="0" 
 />
    <glyph glyph-name="glyph1" horiz-adv-x="0" 
 />
    <glyph glyph-name="uni000D" unicode="&#xd;" horiz-adv-x="0" 
 />
    <glyph glyph-name="space" unicode=" " horiz-adv-x="419" 
 />
    <glyph glyph-name="exclam" unicode="!" horiz-adv-x="675" 
d="M174 133q0 62 48 108t116 46t116 -46t48 -108t-48 -107.5t-116 -45.5t-116 45.5t-48 107.5zM174 1434h328l-51 -1024h-226z" />
    <glyph glyph-name="quotedbl" unicode="&#x22;" horiz-adv-x="849" 
d="M113 963v471h245v-471h-245zM492 963v471h245v-471h-245z" />
    <glyph glyph-name="numbersign" unicode="#" horiz-adv-x="1556" 
d="M51 379l41 205h277l51 266h-277l41 205h277l71 379h236l-72 -379h297l72 379h235l-71 -379h276l-41 -205h-276l-51 -266h276l-41 -205h-276l-72 -379h-236l72 379h-297l-71 -379h-236l72 379h-277zM604 584h297l51 266h-297z" />
    <glyph glyph-name="dollar" unicode="$" 
d="M51 205l185 184q5 -6 14.5 -16.5t42 -37t69 -46.5t94 -36.5t117.5 -16.5q111 0 173.5 52t62.5 132q0 53 -39 90.5t-101.5 60.5t-137.5 44.5t-150.5 52.5t-138 74.5t-101.5 120.5t-39 181q0 148 103 262t276 146v197h267v-199q61 -13 117.5 -36t93 -47t64 -46.5
t39.5 -36.5l13 -14l-184 -195q-4 5 -12 13.5t-34.5 29.5t-55 37t-73.5 29.5t-91 13.5q-89 0 -142 -45t-53 -109q0 -53 39 -90.5t101.5 -60.5t138 -44.5t150.5 -52.5t137.5 -74.5t101.5 -120.5t39 -181q0 -164 -102.5 -282t-286.5 -154v-199h-267v192q-80 11 -153.5 39
t-121.5 59.5t-85 61t-53 49.5z" />
    <glyph glyph-name="percent" unicode="%" horiz-adv-x="1669" 
d="M61 1126q0 133 102.5 235.5t246.5 102.5t246 -102.5t102 -235.5t-102 -235.5t-246 -102.5t-246.5 102.5t-102.5 235.5zM256 0l901 1434h256l-901 -1434h-256zM266 1126q0 -61 41 -102t103 -41t102.5 40.5t40.5 102.5t-41 103t-102 41q-62 0 -103 -41t-41 -103zM911 307
q0 133 102.5 235.5t246.5 102.5t246 -102.5t102 -235.5t-102 -235.5t-246 -102.5t-246.5 102.5t-102.5 235.5zM1116 307q0 -61 41 -102t103 -41t102.5 41t40.5 102q0 62 -41 103t-102 41q-62 0 -103 -41.5t-41 -102.5z" />
    <glyph glyph-name="ampersand" unicode="&#x26;" horiz-adv-x="1341" 
d="M113 338q0 74 27.5 145t66.5 118.5t78 84.5t67 54l27 18l-20 20q-12 14 -44 55.5t-56 82t-44 96t-20 104.5q0 148 109 253.5t269 105.5q166 0 272.5 -100.5t106.5 -248.5q0 -57 -24 -116t-59 -102.5t-69.5 -78.5t-58.5 -53l-24 -18l215 -266q7 10 17 29t27 75t17 111h256
q0 -69 -12.5 -136.5t-30.5 -114.5t-36.5 -84.5t-31.5 -55.5l-12 -19q2 -3 6 -8.5t16.5 -20t26 -25t34 -19.5t40.5 -9q14 0 26.5 2.5t18.5 4.5l6 3v-235q-50 -31 -122 -31q-43 0 -85.5 14.5t-72 35.5t-52.5 42.5t-34 36.5l-12 14q-5 -6 -14.5 -15.5t-43.5 -34t-72.5 -43.5
t-100.5 -34.5t-128 -15.5q-201 0 -325.5 110t-124.5 269zM389 358q0 -71 47 -112t137 -41q55 0 106 20.5t75 40.5l24 21l-246 297q-6 -4 -15.5 -12t-34 -32t-43.5 -49.5t-34.5 -62t-15.5 -70.5zM440 1106q0 -41 33 -92t67 -82l33 -31l13 13q9 8 30 32.5t37 48t29.5 54.5
t13.5 57q0 54 -34.5 88.5t-88.5 34.5q-61 0 -97 -34t-36 -89z" />
    <glyph glyph-name="quotesingle" unicode="'" horiz-adv-x="471" 
d="M113 963v471h245v-471h-245z" />
    <glyph glyph-name="parenleft" unicode="(" horiz-adv-x="747" 
d="M143 512q0 121 18.5 241t48.5 214.5t66 180.5t72 148t66 107.5t48 68.5l19 23l215 -133l-30 -42q-18 -27 -66 -115t-84 -181.5t-66 -233.5t-30 -278t28.5 -277t69 -239.5t81 -181t69.5 -121.5l28 -41l-215 -123q-14 16 -36.5 45.5t-81 129t-103 206.5t-81 271.5
t-36.5 330.5z" />
    <glyph glyph-name="parenright" unicode=")" horiz-adv-x="747" 
d="M51 -348l30 42q19 28 66.5 118.5t84 185t66.5 235.5t30 279q0 100 -15.5 201.5t-39.5 183t-53.5 156.5t-59.5 130l-54 96q-24 41 -40 62l-15 21l215 133q14 -16 36.5 -45.5t81 -129t103 -206.5t81 -271.5t36.5 -330.5q0 -121 -18.5 -241t-48.5 -214.5t-66 -180.5
t-72 -148t-66 -107.5t-49 -68.5l-18 -23z" />
    <glyph glyph-name="asterisk" unicode="*" horiz-adv-x="819" 
d="M51 1096l62 184l215 -82l-21 236h205l-20 -236l215 82l61 -184l-215 -62l143 -174l-153 -123l-133 195l-134 -195l-153 123l143 174z" />
    <glyph glyph-name="plus" unicode="+" horiz-adv-x="1075" 
d="M72 471v256h348v348h235v-348h349v-256h-349v-348h-235v348h-348z" />
    <glyph glyph-name="comma" unicode="," horiz-adv-x="532" 
d="M-10 -174l225 471l225 -133l-266 -430z" />
    <glyph glyph-name="hyphen" unicode="-" horiz-adv-x="880" 
d="M72 481v246h737v-246h-737z" />
    <glyph glyph-name="period" unicode="." horiz-adv-x="512" 
d="M92 133q0 62 48 108t116 46t116 -46t48 -108t-48 -107.5t-116 -45.5t-116 45.5t-48 107.5z" />
    <glyph glyph-name="slash" unicode="/" horiz-adv-x="993" 
d="M61 -430l615 1884h256l-615 -1884h-256z" />
    <glyph glyph-name="zero" unicode="0" horiz-adv-x="1454" 
d="M113 717q0 168 50 310.5t134 237t195.5 147t234.5 52.5t234.5 -52.5t195.5 -147t134 -237t50 -310.5t-50 -310.5t-134 -237t-195.5 -147.5t-234.5 -53t-234.5 53t-195.5 147.5t-134 237t-50 310.5zM420 717q0 -224 91 -347.5t216 -123.5t216 123.5t91 347.5t-91 347.5
t-216 123.5t-216 -123.5t-91 -347.5z" />
    <glyph glyph-name="one" unicode="1" horiz-adv-x="819" 
d="M82 1044v195q66 9 121 32t86 50t53 53t30 43l7 17h256v-1434h-307v1044h-246z" />
    <glyph glyph-name="two" unicode="2" horiz-adv-x="1187" 
d="M72 0q0 137 38 250t98.5 188t133.5 136t146 108.5t133.5 92.5t98.5 99.5t38 118.5q0 86 -53.5 135.5t-151.5 49.5q-49 0 -90 -18t-65 -43.5t-40.5 -51t-23.5 -43.5l-6 -18l-256 122q2 7 6.5 19t23 47.5t42 67t65 70.5t90.5 67.5t121 47.5t153 19q220 0 361 -132.5
t141 -327.5q0 -92 -34.5 -170.5t-88 -131.5t-123.5 -106.5t-135.5 -95t-130.5 -98.5t-102 -115h614v-287h-1003z" />
    <glyph glyph-name="three" unicode="3" horiz-adv-x="1177" 
d="M20 195l185 194l14 -16q9 -11 40.5 -37.5t67 -46.5t91 -36.5t114.5 -16.5q118 0 182 52t64 132t-62 132t-173 52h-154v256h143q91 0 143 48t52 126q0 71 -52.5 117.5t-142.5 46.5q-49 0 -95 -13.5t-77.5 -33t-56 -39.5t-35.5 -34l-12 -13l-184 184q6 9 18.5 23.5t57 51.5
t96.5 65.5t138 51.5t181 23q217 0 349 -115t132 -284q0 -63 -21 -118t-51 -88t-60 -57t-51 -34l-21 -10q5 -2 14.5 -5.5t36 -17.5t50.5 -31.5t53.5 -47.5t51 -65t36 -85.5t14.5 -106.5q0 -85 -37 -162.5t-104 -137t-169 -95t-223 -35.5q-75 0 -146 12.5t-123.5 32.5t-99 44
t-77.5 48t-53.5 44t-33.5 32z" />
    <glyph glyph-name="four" unicode="4" horiz-adv-x="1249" 
d="M61 256v307l625 871h358v-912h164v-266h-164v-256h-307v256h-676zM348 522h389v553z" />
    <glyph glyph-name="five" unicode="5" horiz-adv-x="1269" 
d="M102 195l185 194q5 -6 14.5 -15.5t41.5 -34t67.5 -43.5t91 -34.5t112.5 -15.5q114 0 180 62t66 163q0 100 -70 168t-176 68q-46 0 -87 -11.5t-67 -28t-45 -33.5t-27 -28l-9 -12l-215 20l51 820h870v-267h-593l-21 -266q9 6 26.5 14.5t76 22.5t122.5 14q207 0 344.5 -137
t137.5 -344q0 -218 -150 -360t-393 -142q-75 0 -145 12.5t-122 32.5t-97.5 44t-75.5 48t-51.5 44t-31.5 32z" />
    <glyph glyph-name="six" unicode="6" horiz-adv-x="1259" 
d="M82 471q0 55 12.5 110.5t31 96.5t36.5 74t30 50l13 17l399 615h318l-308 -471q27 10 62 10q126 0 239.5 -69.5t182.5 -186t69 -246.5q0 -210 -154 -356t-388 -146q-155 0 -280 68t-194 182.5t-69 251.5zM379 471q0 -100 69.5 -167.5t176.5 -67.5q106 0 175.5 67.5
t69.5 167.5q0 101 -69.5 168.5t-175.5 67.5t-176 -68t-70 -168z" />
    <glyph glyph-name="seven" unicode="7" horiz-adv-x="1095" 
d="M61 1157v277h983v-246l-563 -1188h-317l553 1157h-656z" />
    <glyph glyph-name="eight" unicode="8" horiz-adv-x="1249" 
d="M102 430q0 66 22 126t54 99t63.5 68t53.5 42l22 13q-7 4 -18 11t-39 33.5t-49.5 57t-39 80.5t-17.5 105q0 76 35.5 148.5t96 128t149.5 89t190 33.5t190 -33.5t149.5 -89t96 -128t35.5 -148.5q0 -55 -17 -104.5t-41 -81.5t-48 -56t-41 -35l-17 -10l24 -13q14 -9 51 -41.5
t65.5 -69t51.5 -97.5t23 -127q0 -92 -39 -176t-106.5 -147t-166 -100.5t-210.5 -37.5q-149 0 -270 64t-187 169t-66 228zM389 430q0 -79 69.5 -142t166.5 -63t166 63t69 142t-69 142t-166 63t-166.5 -63t-69.5 -142zM440 1044q0 -70 51 -116.5t134 -46.5t133.5 46.5
t50.5 116.5q0 71 -50.5 117.5t-133.5 46.5t-134 -47t-51 -117z" />
    <glyph glyph-name="nine" unicode="9" horiz-adv-x="1259" 
d="M92 963q0 137 69 251.5t194 182t280 67.5t280 -67.5t194 -182t69 -251.5q0 -87 -31 -174t-61 -131l-31 -44l-400 -614h-317l307 471q-26 -10 -61 -10q-126 0 -240 69.5t-183 186t-69 246.5zM389 963q0 -100 70 -168t176 -68t176 68t70 168t-69.5 167.5t-176.5 67.5
t-176.5 -67.5t-69.5 -167.5z" />
    <glyph glyph-name="colon" unicode=":" horiz-adv-x="512" 
d="M92 133q0 62 48 108t116 46t116 -46t48 -108t-48 -107.5t-116 -45.5t-116 45.5t-48 107.5zM92 870q0 62 48 108t116 46t116 -46t48 -108t-48 -107.5t-116 -45.5t-116 45.5t-48 107.5z" />
    <glyph glyph-name="semicolon" unicode=";" horiz-adv-x="552" 
d="M-10 -174l225 471l225 -133l-266 -430zM133 870q0 62 48 108t116 46t116 -46t48 -108t-48 -107.5t-116 -45.5t-116 45.5t-48 107.5z" />
    <glyph glyph-name="less" unicode="&#x3c;" horiz-adv-x="1044" 
d="M82 410v184l881 420v-266l-533 -246l533 -246v-266z" />
    <glyph glyph-name="equal" unicode="=" horiz-adv-x="1013" 
d="M82 287v235h850v-235h-850zM82 686v236h850v-236h-850z" />
    <glyph glyph-name="greater" unicode="&#x3e;" horiz-adv-x="1044" 
d="M82 -10v266l532 246l-532 246v266l881 -420v-184z" />
    <glyph glyph-name="question" unicode="?" horiz-adv-x="1126" 
d="M41 1116q2 7 6.5 19.5t23.5 49t42.5 69t66 73t92.5 69t123.5 48.5t157.5 20q216 0 353.5 -121t137.5 -288q0 -77 -20.5 -140.5t-53 -107t-71.5 -81t-78 -71t-71.5 -67.5t-53 -79t-20.5 -99h-277q-20 51 -20 92q0 60 19 110t50 84t68 64t74 56.5t68 53.5t50 64t19 80
q0 64 -51 108.5t-133 44.5q-55 0 -100 -17t-71 -40.5t-44 -47.5t-24 -41l-7 -17zM358 133q0 62 48 108t116 46t116 -46t48 -108t-48 -107.5t-116 -45.5t-116 45.5t-48 107.5z" />
    <glyph glyph-name="at" unicode="@" horiz-adv-x="1843" 
d="M123 512q0 158 65 305.5t173 255.5t255.5 173t305.5 65q169 0 320 -61t258 -164t169 -242t62 -291q0 -201 -98.5 -315.5t-250.5 -114.5q-45 0 -86 12.5t-67 30.5t-45.5 36.5t-27.5 31.5l-9 12q-3 -5 -9 -13.5t-28.5 -29.5t-49 -37t-72 -29.5t-97.5 -13.5q-149 0 -254 108
t-105 271q0 161 104 270t245 109q37 0 71 -8.5t55.5 -20.5t37.5 -24t23 -20l7 -9v71h195v-450q0 -46 33 -79.5t79 -33.5q144 0 144 246q0 114 -46 217.5t-125 179.5t-192 121t-241 45q-162 0 -298.5 -80t-216 -219t-79.5 -305t79.5 -305t216 -219t298.5 -80q66 0 128.5 12.5
t104 31t73.5 36.5t47 30l15 13l113 -144q-7 -7 -20.5 -19t-60 -42t-98.5 -52.5t-134 -41.5t-168 -19q-158 0 -305.5 65t-255.5 173t-173 255.5t-65 305.5zM737 502q0 -81 50 -133t124 -52q70 0 117 51t47 134t-46.5 133.5t-117.5 50.5q-74 0 -124 -52.5t-50 -131.5z" />
    <glyph glyph-name="A" unicode="A" horiz-adv-x="1495" 
d="M20 0l564 1434h327l564 -1434h-328l-123 338h-553l-123 -338h-328zM573 604h349l-174 471z" />
    <glyph glyph-name="B" unicode="B" horiz-adv-x="1423" 
d="M184 0v1434h615q97 0 182 -32t143 -84.5t91.5 -121t33.5 -141.5q0 -57 -17 -109t-41 -84.5t-48 -57.5t-41 -36l-17 -10q10 -4 25.5 -11.5t56.5 -36.5t72 -64.5t56.5 -96t25.5 -129.5q0 -83 -35.5 -159t-97.5 -134t-154.5 -92.5t-199.5 -34.5h-650zM492 256h327
q84 0 139.5 53.5t55.5 130.5t-55.5 131t-139.5 54h-327v-369zM492 870h286q76 0 120 42t44 112t-44 112t-120 42h-286v-308z" />
    <glyph glyph-name="C" unicode="C" horiz-adv-x="1546" 
d="M102 717q0 152 60.5 289.5t163.5 238t248 160t307 59.5q81 0 158 -16t134.5 -41t108.5 -55.5t85.5 -61t59.5 -55.5t37 -41l11 -16l-195 -195q-5 8 -16 22t-48 49.5t-79.5 62.5t-112 49t-143.5 22q-199 0 -335 -136t-136 -335t136 -335t335 -136q77 0 148.5 21t118.5 51
t83 60.5t53 51.5l16 21l185 -195q-4 -6 -12.5 -16.5t-37.5 -40t-62 -57t-86.5 -60.5t-111 -56.5t-135.5 -40t-159 -16.5q-162 0 -307 59.5t-248 160.5t-163.5 238.5t-60.5 289.5z" />
    <glyph glyph-name="D" unicode="D" horiz-adv-x="1556" 
d="M184 0v1434h533q206 0 375.5 -95.5t265.5 -260t96 -361.5t-96 -361.5t-265.5 -260t-375.5 -95.5h-533zM492 276h225q178 0 304 128.5t126 312.5q0 122 -55.5 222.5t-154.5 159t-220 58.5h-225v-881z" />
    <glyph glyph-name="E" unicode="E" horiz-adv-x="1361" 
d="M184 0v1434h1055v-277h-747v-287h583v-276h-583v-318h768v-276h-1076z" />
    <glyph glyph-name="F" unicode="F" horiz-adv-x="1320" 
d="M184 0v1434h1055v-277h-747v-317h583v-277h-583v-563h-308z" />
    <glyph glyph-name="G" unicode="G" horiz-adv-x="1658" 
d="M102 717q0 152 60.5 289.5t163.5 238t248 160t307 59.5q81 0 158 -16t134.5 -41t108.5 -55.5t85.5 -61t59.5 -55.5t37 -41l11 -16l-195 -195q-5 8 -16 22t-48 49.5t-79.5 62.5t-112 49t-143.5 22q-199 0 -335 -136t-136 -335t136 -335t335 -136q60 0 115 11.5t90 28
t61.5 33t38.5 27.5l12 12v195h-256v225h563v-532l-25 -30q-17 -19 -76.5 -66.5t-126 -84t-174 -66.5t-222.5 -30q-162 0 -307 59.5t-248 160.5t-163.5 238.5t-60.5 289.5z" />
    <glyph glyph-name="H" unicode="H" horiz-adv-x="1597" 
d="M184 0v1434h308v-574h614v574h307v-1434h-307v584h-614v-584h-308z" />
    <glyph glyph-name="I" unicode="I" horiz-adv-x="675" 
d="M184 0v1434h308v-1434h-308z" />
    <glyph glyph-name="J" unicode="J" horiz-adv-x="1054" 
d="M0 143l184 185q2 -3 7 -8.5t21.5 -20t35.5 -25t48.5 -19.5t61.5 -9q100 0 157.5 57.5t57.5 157.5v973h308v-973q0 -220 -138.5 -356t-363.5 -136q-69 0 -133.5 18t-107 43.5t-75.5 51t-48 43.5z" />
    <glyph glyph-name="K" unicode="K" horiz-adv-x="1454" 
d="M184 0v1434h308v-625l563 625h358l-532 -594l573 -840h-358l-420 614l-184 -204v-410h-308z" />
    <glyph glyph-name="L" unicode="L" horiz-adv-x="1208" 
d="M184 0v1434h308v-1158h665v-276h-973z" />
    <glyph glyph-name="M" unicode="M" horiz-adv-x="1904" 
d="M184 0v1434h277l491 -625l496 625h272v-1434h-307v956l-461 -587l-460 583v-952h-308z" />
    <glyph glyph-name="N" unicode="N" horiz-adv-x="1648" 
d="M184 0v1434h267l706 -912v912h307v-1434h-266l-706 911v-911h-308z" />
    <glyph glyph-name="O" unicode="O" horiz-adv-x="1761" 
d="M102 717q0 152 60.5 289.5t163.5 238t248 160t307 59.5t307 -59.5t248 -160t163 -238t60 -289.5t-60 -289.5t-163 -238.5t-248 -160.5t-307 -59.5t-307 59.5t-248 160.5t-163.5 238.5t-60.5 289.5zM420 717q0 -131 61.5 -239t167.5 -170t232 -62q193 0 326.5 136
t133.5 335t-133.5 335t-326.5 136q-126 0 -232 -62t-167.5 -170t-61.5 -239z" />
    <glyph glyph-name="P" unicode="P" horiz-adv-x="1392" 
d="M184 0v1434h604q221 0 366.5 -139t145.5 -343q0 -205 -145.5 -343t-366.5 -138h-296v-471h-308zM492 748h286q92 0 153.5 59.5t61.5 144.5t-62 145t-153 60h-286v-409z" />
    <glyph glyph-name="Q" unicode="Q" horiz-adv-x="1771" 
d="M102 717q0 152 60.5 289.5t163.5 238t248 160t307 59.5t307 -59.5t248 -160t163 -238t60 -289.5q0 -94 -22 -181t-56.5 -150.5t-76.5 -118t-84.5 -90.5t-77 -62t-56.5 -37l-22 -12q4 -6 12 -16t39 -35.5t69 -45t103.5 -35.5t140.5 -16h41v-246h-61q-70 0 -136 10.5
t-118.5 28t-100 40t-84 48t-67 50.5t-51.5 47.5t-35.5 40t-21.5 27.5l-7 11q-45 -6 -106 -6q-162 0 -307 59.5t-248 160.5t-163.5 238.5t-60.5 289.5zM420 717q0 -131 61.5 -239t167.5 -170t232 -62q193 0 326.5 136t133.5 335t-133.5 335t-326.5 136q-126 0 -232 -62
t-167.5 -170t-61.5 -239z" />
    <glyph glyph-name="R" unicode="R" horiz-adv-x="1454" 
d="M184 0v1434h635q213 0 352.5 -136t139.5 -335q0 -86 -26.5 -161t-64 -120.5t-75 -78.5t-63.5 -47l-27 -13l307 -543h-328l-276 502h-266v-502h-308zM492 778h317q84 0 139.5 54t55.5 131q0 85 -55 139.5t-140 54.5h-317v-379z" />
    <glyph glyph-name="S" unicode="S" 
d="M51 205l185 184q5 -6 14.5 -16.5t42 -37t69 -46.5t94 -36.5t117.5 -16.5q111 0 173.5 52t62.5 132q0 53 -39 90.5t-101.5 60.5t-137.5 44.5t-150.5 52.5t-138 74.5t-101.5 120.5t-39 181q0 174 139 297t363 123q89 0 170 -20t133.5 -48.5t92 -57t57.5 -48.5l18 -20
l-184 -195q-4 5 -12 13.5t-34.5 29.5t-55 37t-73.5 29.5t-91 13.5q-89 0 -142 -45t-53 -109q0 -53 39 -90.5t101.5 -60.5t138 -44.5t150.5 -52.5t137.5 -74.5t101.5 -120.5t39 -181q0 -198 -144.5 -324.5t-398.5 -126.5q-73 0 -142.5 13t-122 34t-99 46t-78.5 50t-55.5 46
t-34.5 34z" />
    <glyph glyph-name="T" unicode="T" horiz-adv-x="1208" 
d="M41 1157v277h1126v-277h-409v-1157h-307v1157h-410z" />
    <glyph glyph-name="U" unicode="U" horiz-adv-x="1597" 
d="M174 584v850h307v-850q0 -145 93 -241.5t225 -96.5t224.5 96.5t92.5 241.5v850h307v-850q0 -129 -47.5 -243t-130 -195.5t-198.5 -129t-248 -47.5t-248.5 47.5t-199 129t-130 195.5t-47.5 243z" />
    <glyph glyph-name="V" unicode="V" horiz-adv-x="1474" 
d="M41 1434h328l368 -1065l369 1065h328l-533 -1434h-328z" />
    <glyph glyph-name="W" unicode="W" horiz-adv-x="2211" 
d="M41 1434h328l297 -983l297 983h286l297 -983l297 983h328l-471 -1434h-287l-307 963l-307 -963h-287z" />
    <glyph glyph-name="X" unicode="X" horiz-adv-x="1433" 
d="M20 0l502 748l-461 686h349l307 -461l307 461h348l-461 -686l502 -748h-348l-348 522l-348 -522h-349z" />
    <glyph glyph-name="Y" unicode="Y" horiz-adv-x="1372" 
d="M20 1434h328l338 -615l338 615h328l-512 -922v-512h-308v512z" />
    <glyph glyph-name="Z" unicode="Z" horiz-adv-x="1331" 
d="M102 0v276l727 881h-696v277h1075v-277l-727 -881h748v-276h-1127z" />
    <glyph glyph-name="bracketleft" unicode="[" horiz-adv-x="737" 
d="M164 -430v1884h512v-235h-246v-1414h246v-235h-512z" />
    <glyph glyph-name="backslash" unicode="\" horiz-adv-x="993" 
d="M61 1454h256l615 -1884h-256z" />
    <glyph glyph-name="bracketright" unicode="]" horiz-adv-x="737" 
d="M61 -195h246v1414h-246v235h512v-1884h-512v235z" />
    <glyph glyph-name="asciicircum" unicode="^" horiz-adv-x="880" 
d="M61 819l277 615h205l276 -615h-235l-144 328l-143 -328h-236z" />
    <glyph glyph-name="underscore" unicode="_" horiz-adv-x="706" 
d="M-20 -174h747v-256h-747v256z" />
    <glyph glyph-name="grave" unicode="`" horiz-adv-x="573" 
d="M61 1444h287l164 -307h-225z" />
    <glyph glyph-name="a" unicode="a" horiz-adv-x="1095" 
d="M61 266q0 122 79 204.5t218 107.5l318 57q0 64 -46 103.5t-128 39.5q-43 0 -82 -10.5t-64.5 -25.5t-44 -30t-27.5 -26l-8 -10l-153 153l9 11q5 7 24 27.5t40.5 38.5t57 40.5t73.5 39t89.5 27.5t105.5 11q190 0 310 -114t120 -285v-625h-276v102q-4 -5 -12 -13t-35 -29
t-57 -37.5t-77 -29.5t-96 -13q-150 0 -244 83.5t-94 202.5zM338 307q0 -48 33 -75t100 -27q94 0 149.5 59.5t55.5 165.5v31l-225 -41q-54 -9 -83.5 -38t-29.5 -75z" />
    <glyph glyph-name="b" unicode="b" horiz-adv-x="1269" 
d="M133 0v1434h277v-553q4 6 12 15.5t36 34t60 43.5t83 34.5t106 15.5q95 0 183 -40t153.5 -109t105 -166.5t39.5 -206.5t-39.5 -206.5t-105 -166.5t-153.5 -109t-183 -40q-55 0 -105.5 14.5t-84 35.5t-59 42.5t-36.5 35.5l-12 15v-123h-277zM410 502q0 -121 71.5 -199
t173.5 -78t174 78t72 199q0 120 -72 198t-174 78t-173.5 -77.5t-71.5 -198.5z" />
    <glyph glyph-name="c" unicode="c" horiz-adv-x="1075" 
d="M61 502q0 102 43.5 198t116 167t173.5 114t210 43q77 0 148 -21t116.5 -51t80 -60.5t49.5 -51.5l16 -21l-174 -174q-3 5 -9.5 14t-29 32t-48 40.5t-66 32t-83.5 14.5q-108 0 -187 -80.5t-79 -195.5t79 -196t187 -81q43 0 84.5 13.5t69.5 33.5t49.5 39.5t32.5 32.5l10 14
l164 -174q-5 -8 -16 -22t-49 -49t-81.5 -62t-115 -49t-148.5 -22q-109 0 -210 43t-173.5 114t-116 167t-43.5 198z" />
    <glyph glyph-name="d" unicode="d" horiz-adv-x="1269" 
d="M61 502q0 109 39.5 206.5t105.5 166.5t154 109t183 40q55 0 105.5 -14.5t84 -36t59 -42.5t36.5 -35l12 -15v553h276v-1434h-276v123q-4 -6 -12 -15.5t-36 -34t-60 -43.5t-83 -34.5t-106 -15.5q-95 0 -183 40t-154 109t-105.5 166.5t-39.5 206.5zM348 502q0 -121 72 -199
t174 -78t174 78t72 199q0 120 -72 198t-174 78t-174 -78t-72 -198z" />
    <glyph glyph-name="e" unicode="e" horiz-adv-x="1167" 
d="M61 502q0 141 70.5 261.5t191 190.5t261.5 70q215 0 358 -143.5t143 -358.5q0 -32 -2.5 -60t-4.5 -40l-3 -12h-727q16 -82 86 -138.5t180 -56.5q49 0 94.5 12.5t75.5 30.5t53 36.5t33 31.5l11 12l143 -184q-6 -7 -18 -19t-53.5 -42t-88 -52.5t-120 -41.5t-150.5 -19
q-109 0 -208 41.5t-170 111.5t-113 166.5t-42 202.5zM348 604h461q-16 80 -76 132t-149 52q-88 0 -149.5 -51.5t-86.5 -132.5z" />
    <glyph glyph-name="f" unicode="f" horiz-adv-x="747" 
d="M41 727v246h143v133q0 348 318 348q45 0 91 -8t69 -16l24 -7v-235q-41 20 -102 20q-53 0 -88 -32.5t-35 -79.5v-123h225v-246h-225v-727h-277v727h-143z" />
    <glyph glyph-name="g" unicode="g" 
d="M61 522q0 101 39 194.5t102 160.5t145 107t165 40q55 0 105.5 -14.5t84 -36t59 -42.5t37.5 -35l11 -15v123h276v-922q0 -142 -68.5 -259t-190.5 -185t-273 -68q-63 0 -122 12t-104 31t-84.5 42t-66 45.5t-46.5 41.5t-29 31l-9 12l174 164l11 -14q8 -9 33.5 -32
t55.5 -40.5t77.5 -32t99.5 -14.5q123 0 194.5 71.5t71.5 194.5v82q-4 -6 -12 -15.5t-36 -34.5t-60 -44t-83 -34.5t-106 -15.5q-83 0 -165 40t-145 107t-102 160.5t-39 194.5zM348 522q0 -106 65.5 -176t159.5 -70t165 72t71 174t-71 174t-165 72t-159.5 -70t-65.5 -176z" />
    <glyph glyph-name="h" unicode="h" 
d="M133 0v1434h277v-553q4 6 12 15.5t35.5 34t58.5 43.5t79.5 34.5t100.5 15.5q172 0 280.5 -118.5t108.5 -321.5v-584h-276v553q0 92 -55 148.5t-140 56.5q-94 0 -149 -61.5t-55 -174.5v-522h-277z" />
    <glyph glyph-name="i" unicode="i" horiz-adv-x="563" 
d="M113 1290q0 69 42 111.5t111 42.5q76 0 120 -42t44 -112t-44 -111.5t-120 -41.5q-69 0 -111 42t-42 111zM133 0v1004h277v-1004h-277z" />
    <glyph glyph-name="j" unicode="j" horiz-adv-x="563" 
d="M-92 -154q51 -20 102 -20q53 0 88 33t35 80v1065h277v-1086q0 -167 -86.5 -257.5t-241.5 -90.5q-45 0 -88.5 8t-64.5 16l-21 7v245zM113 1290q0 69 42 111.5t111 42.5q76 0 120 -42t44 -112t-44 -111.5t-120 -41.5q-69 0 -111 42t-42 111z" />
    <glyph glyph-name="k" unicode="k" horiz-adv-x="1116" 
d="M133 0v1434h277v-840l358 410h317l-378 -431l399 -573h-307l-267 389l-122 -143v-246h-277z" />
    <glyph glyph-name="l" unicode="l" horiz-adv-x="563" 
d="M133 0v1434h277v-1434h-277z" />
    <glyph glyph-name="m" unicode="m" horiz-adv-x="1792" 
d="M123 0v1004h276v-123q4 6 11 15.5t32.5 34t54 43.5t74.5 34.5t95 15.5q60 0 111.5 -18t82.5 -43.5t53 -51t31 -43.5l8 -18l14 19q9 12 40.5 42t67.5 52.5t94.5 41.5t121.5 19q166 0 262.5 -111.5t96.5 -328.5v-584h-277v553q0 97 -46 151t-118 54q-80 0 -132 -62.5
t-52 -173.5v-522h-276v553q0 97 -46 151t-118 54q-80 0 -132.5 -62.5t-52.5 -173.5v-522h-276z" />
    <glyph glyph-name="n" unicode="n" horiz-adv-x="1218" 
d="M123 0v1004h276v-123q4 6 12 15.5t36 34t58.5 43.5t79.5 34.5t101 15.5q172 0 280.5 -118.5t108.5 -321.5v-584h-276v553q0 92 -55 148.5t-140 56.5q-94 0 -149.5 -61.5t-55.5 -174.5v-522h-276z" />
    <glyph glyph-name="o" unicode="o" horiz-adv-x="1208" 
d="M61 502q0 102 43.5 198t115 167t170.5 114t204 43q141 0 264 -72.5t195.5 -193t72.5 -256.5t-72.5 -256.5t-195.5 -193t-264 -72.5q-105 0 -204 43t-170.5 114t-115 167t-43.5 198zM348 502q0 -114 72.5 -190t173.5 -76t173.5 76t72.5 190t-72.5 190t-173.5 76
t-173.5 -76t-72.5 -190z" />
    <glyph glyph-name="p" unicode="p" horiz-adv-x="1259" 
d="M123 -430v1434h276v-123q4 6 12 15.5t36 34t60 43.5t83 34.5t106 15.5q95 0 183 -40t154 -109t105.5 -166.5t39.5 -206.5t-39.5 -206.5t-105.5 -166.5t-154 -109t-183 -40q-55 0 -105.5 14.5t-84 35.5t-59 42.5t-37.5 35.5l-11 15v-553h-276zM399 502q0 -121 72 -199
t174 -78t174 78t72 199q0 120 -72 198t-174 78t-174 -78t-72 -198z" />
    <glyph glyph-name="q" unicode="q" horiz-adv-x="1259" 
d="M61 502q0 109 39.5 206.5t105.5 166.5t154 109t183 40q55 0 105.5 -14.5t84 -36t59 -42.5t36.5 -35l12 -15v123h276v-1434h-276v553q-4 -6 -12 -15.5t-36 -34t-60 -43.5t-83 -34.5t-106 -15.5q-95 0 -183 40t-154 109t-105.5 166.5t-39.5 206.5zM348 502q0 -121 72 -199
t174 -78t174 78t72 199q0 120 -72 198t-174 78t-174 -78t-72 -198z" />
    <glyph glyph-name="r" unicode="r" horiz-adv-x="757" 
d="M123 0v1004h276v-123q4 5 12 14t36 32t58.5 40.5t79.5 32t101 14.5h41v-277q-31 11 -92 11q-109 0 -172.5 -69.5t-63.5 -197.5v-481h-276z" />
    <glyph glyph-name="s" unicode="s" horiz-adv-x="931" 
d="M41 164l154 153q3 -5 9.5 -12.5t28 -26.5t44.5 -34t59.5 -27t73.5 -12q66 0 99.5 25.5t33.5 66.5q0 31 -25.5 53.5t-66 37.5t-89.5 30t-98.5 37t-90 52t-66 81.5t-25.5 118.5q0 77 49.5 149.5t140.5 120t199 47.5q66 0 126 -16t99 -38.5t68 -45t42 -38.5l13 -16
l-143 -163q-3 3 -7.5 8.5t-21 19.5t-34 24.5t-45 19.5t-56.5 9q-58 0 -90.5 -24t-32.5 -57q0 -29 25.5 -50t66 -35.5t90 -29.5t98.5 -37.5t89.5 -53t66 -83t25.5 -121.5q0 -136 -106.5 -226.5t-292.5 -90.5q-80 0 -152 19t-117 46t-78.5 54t-47.5 46z" />
    <glyph glyph-name="t" unicode="t" horiz-adv-x="829" 
d="M41 737v246h92q47 0 80 36.5t33 96.5v184h246v-317h204v-246h-204v-399q0 -47 34.5 -80t87.5 -33q27 0 53 5.5t38 10.5l12 5v-236q-83 -30 -185 -30q-317 0 -317 348v409h-174z" />
    <glyph glyph-name="u" unicode="u" 
d="M123 403v601h276v-574q0 -85 55 -139.5t140 -54.5q94 0 149.5 61t55.5 174v533h276v-1004h-276v102q-4 -5 -12 -13t-36 -29t-58.5 -37.5t-79.5 -29.5t-101 -13q-171 0 -280 115.5t-109 307.5z" />
    <glyph glyph-name="v" unicode="v" horiz-adv-x="1064" 
d="M0 1004h287l235 -666l236 666h286l-378 -1004h-287z" />
    <glyph glyph-name="w" unicode="w" horiz-adv-x="1576" 
d="M0 1004h287l194 -605l195 605h205l194 -605l195 605h286l-342 -1004h-241l-195 573l-194 -573h-242z" />
    <glyph glyph-name="x" unicode="x" horiz-adv-x="1044" 
d="M0 0l338 512l-318 492h308l184 -297l184 297h308l-318 -492l338 -512h-297l-215 317l-215 -317h-297z" />
    <glyph glyph-name="y" unicode="y" horiz-adv-x="1064" 
d="M0 1004h287l235 -666l236 666h286l-399 -1065q-70 -186 -165 -277.5t-224 -91.5q-45 0 -88.5 8t-64.5 16l-21 7v245q41 -20 102 -20q124 0 174 113l31 71z" />
    <glyph glyph-name="z" unicode="z" horiz-adv-x="1024" 
d="M72 0v246l491 512h-471v246h819v-246l-491 -512h512v-246h-860z" />
    <glyph glyph-name="braceleft" unicode="{" horiz-adv-x="808" 
d="M113 399v226q61 0 97 35.5t36 97.5v348q0 168 88 258t250 90h153v-246h-102q-54 0 -88.5 -35.5t-34.5 -93.5v-331q0 -57 -13.5 -102.5t-33 -69.5t-39.5 -39.5t-34 -20.5l-13 -4q5 -1 14 -4.5t32 -20t40.5 -39.5t32 -69t14.5 -103v-333q0 -57 34.5 -92t88.5 -35h102v-246
h-153q-162 0 -250 90t-88 258v348q0 62 -36 97.5t-97 35.5z" />
    <glyph glyph-name="bar" unicode="|" horiz-adv-x="768" 
d="M246 -430v1884h276v-1884h-276z" />
    <glyph glyph-name="braceright" unicode="}" horiz-adv-x="808" 
d="M72 -184h102q54 0 88.5 35t34.5 92v333q0 57 13.5 102.5t33.5 69.5t39.5 39.5t32.5 20.5l14 4q-5 1 -14 4.5t-32 20t-40.5 39.5t-32 69t-14.5 103v331q0 58 -34.5 93.5t-88.5 35.5h-102v246h153q162 0 250 -90t88 -258v-348q0 -62 35.5 -97.5t97.5 -35.5v-226
q-62 0 -97.5 -35.5t-35.5 -97.5v-348q0 -168 -88 -258t-250 -90h-153v246z" />
    <glyph glyph-name="asciitilde" unicode="~" horiz-adv-x="1157" 
d="M61 563q2 4 5.5 12t16.5 30.5t28.5 42.5t42 45t56 43t71.5 30t88 12q54 0 100.5 -12.5t79.5 -31.5l63 -36q31 -18 65.5 -30.5t70.5 -12.5q34 0 66 10.5t52.5 25.5t36 30.5t22.5 26.5l7 10l164 -113q-2 -4 -5.5 -12t-16.5 -30.5t-28.5 -42.5t-42 -45t-56 -43t-71.5 -30
t-88 -12q-66 0 -122.5 19t-90 42.5t-77.5 42.5t-88 19q-34 0 -66 -10.5t-52.5 -25.5t-36.5 -30t-23 -25l-7 -11z" />
    <glyph glyph-name="uni00A0" unicode="&#xa0;" horiz-adv-x="419" 
 />
    <glyph glyph-name="exclamdown" unicode="&#xa1;" horiz-adv-x="634" 
d="M154 -430l51 1024h225l51 -1024h-327zM154 870q0 62 47.5 108t115.5 46t116 -46t48 -108t-48 -107.5t-116 -45.5t-115.5 45.5t-47.5 107.5z" />
    <glyph glyph-name="cent" unicode="&#xa2;" horiz-adv-x="1044" 
d="M61 502q0 180 113.5 317.5t286.5 184.5v204h246v-204q49 -11 94 -32.5t75 -43.5t53 -42t33 -33l11 -13l-164 -164l-8 11q-5 7 -23 24.5t-40 31t-58 24.5t-76 11q-101 0 -178.5 -81t-77.5 -195t77.5 -195.5t178.5 -81.5q40 0 76.5 11t59.5 26.5t40.5 31.5t25.5 27l7 11
l170 -174q-4 -5 -12 -14t-35 -33t-57 -44.5t-76.5 -43t-95.5 -33.5v-205h-246v205q-174 56 -287 194.5t-113 317.5z" />
    <glyph glyph-name="sterling" unicode="&#xa3;" horiz-adv-x="1198" 
d="M123 0v266q123 0 123 113v194h-123v215h123v195q0 216 134.5 348.5t356.5 132.5q77 0 149 -20t119 -48.5t83 -57t52 -48.5l17 -20l-205 -195l-8 11q-6 7 -25.5 25t-41.5 31.5t-57 24.5t-72 11q-92 0 -154 -61.5t-62 -153.5v-175h359v-215h-359v-194q0 -32 -10 -60
t-20 -41l-10 -12h655v-266h-1024z" />
    <glyph glyph-name="currency" unicode="&#xa4;" horiz-adv-x="1423" 
d="M92 184v246h154v113h-154v245h154v646h598q216 0 356.5 -131.5t140.5 -319.5q0 -189 -137.5 -314.5t-363.5 -125.5h-287v-113h430v-246h-430v-184h-307v184h-154zM553 788h287q84 0 139 53.5t55 131.5q0 85 -54.5 139.5t-139.5 54.5h-287v-379z" />
    <glyph glyph-name="yen" unicode="&#xa5;" horiz-adv-x="1372" 
d="M20 1434h328l338 -615l338 615h328l-394 -707h179v-215h-297v-102h297v-215h-297v-195h-308v195h-296v215h296v102h-296v215h176z" />
    <glyph glyph-name="brokenbar" unicode="&#xa6;" horiz-adv-x="768" 
d="M246 348h276v-778h-276v778zM246 676v778h276v-778h-276z" />
    <glyph glyph-name="section" unicode="&#xa7;" horiz-adv-x="1116" 
d="M102 645q0 52 19 98t46 75.5t54.5 51.5t46.5 32l19 9l-13 11q-9 6 -30 29t-37 48.5t-29.5 65.5t-13.5 82q0 130 114.5 223.5t305.5 93.5q69 0 131 -16t101.5 -38t69.5 -44.5t43 -38.5l13 -16l-143 -154q-8 8 -23 20t-60.5 32t-90.5 20q-154 0 -154 -103q0 -34 30 -61.5
t78 -48.5t105.5 -43.5t115.5 -53t106 -69t78 -99.5t30 -137q0 -52 -19 -98t-46 -75.5t-54.5 -51.5t-46.5 -31l-19 -10q6 -3 16.5 -9.5t37 -29t47 -47.5t37 -65.5t16.5 -83.5q0 -145 -121 -247t-325 -102q-84 0 -159 21t-121 51t-80.5 60.5t-48.5 51.5l-15 21l153 154
q3 -5 9.5 -13.5t29 -29.5t48 -37t66 -29.5t83.5 -13.5q89 0 131.5 33t42.5 90q0 37 -31.5 66.5t-82.5 51.5t-112 45t-122 53t-112 68.5t-82.5 99.5t-31.5 138zM369 655q0 -40 27.5 -74.5t66.5 -55.5t78 -36.5t67 -21.5l27 -6q5 1 12.5 4t27 14t34.5 25.5t27 41t12 58.5
q0 40 -27.5 75t-67 56t-78.5 36.5t-67 21.5l-27 6q-5 -1 -12.5 -3t-26.5 -12.5t-34 -24.5t-27 -42t-12 -62z" />
    <glyph glyph-name="dieresis" unicode="&#xa8;" horiz-adv-x="880" 
d="M61 1300q0 62 46.5 108t107.5 46t107.5 -46t46.5 -108q0 -61 -46 -107t-108 -46t-108 46t-46 107zM512 1300q0 62 46 108t108 46q61 0 107 -46t46 -108t-45.5 -107.5t-107.5 -45.5t-108 46t-46 107z" />
    <glyph glyph-name="copyright" unicode="&#xa9;" horiz-adv-x="1781" 
d="M123 717q0 151 60 289t162 238.5t245 160t301 59.5t301 -59.5t245 -160t162 -238.5t60 -289q0 -202 -101.5 -374t-278.5 -273t-388 -101t-388 101t-278.5 273t-101.5 374zM307 717q0 -156 79.5 -290.5t214 -214t290.5 -79.5t290.5 79.5t214 214t79.5 290.5t-79.5 290.5
t-214 213.5t-290.5 79t-290.5 -79t-214 -213.5t-79.5 -290.5zM502 717q0 170 116.5 284.5t292.5 114.5q62 0 118 -17t91 -41t61 -48t37 -41l11 -17l-123 -123q-2 4 -6.5 11t-20.5 25t-35 31.5t-52 24.5t-70 11q-92 0 -159 -65t-67 -150t67 -150t159 -65q37 0 70 11.5t53 28
t34.5 33t20.5 27.5l6 12l133 -122q-4 -7 -12.5 -19t-38.5 -42t-65 -53t-92.5 -42t-119.5 -19q-176 0 -292.5 115t-116.5 285z" />
    <glyph glyph-name="ordfeminine" unicode="&#xaa;" horiz-adv-x="747" 
d="M72 983q0 70 57.5 125t151.5 70l200 30q0 33 -30.5 57.5t-81.5 24.5q-45 0 -83.5 -15t-54.5 -31l-16 -15l-113 102q3 5 10 13.5t31.5 29.5t53.5 37t78 29.5t104 13.5q130 0 203 -71t73 -195v-379h-174v72q-2 -4 -7 -10t-23 -22t-38.5 -28.5t-54.5 -22.5t-71 -10
q-98 0 -156.5 54.5t-58.5 140.5zM256 993q0 -25 22.5 -43t59.5 -18q54 0 98.5 44.5t44.5 98.5v21l-153 -31q-30 -6 -51 -27t-21 -45z" />
    <glyph glyph-name="guillemotleft" unicode="&#xab;" horiz-adv-x="1126" 
d="M82 492l256 358h266l-256 -358l256 -359h-266zM522 492l256 358h266l-256 -358l256 -359h-266z" />
    <glyph glyph-name="logicalnot" unicode="&#xac;" horiz-adv-x="972" 
d="M72 594v246h829v-506h-256v260h-573z" />
    <glyph glyph-name="uni00AD" unicode="&#xad;" horiz-adv-x="880" 
d="M72 481v246h737v-246h-737z" />
    <glyph glyph-name="registered" unicode="&#xae;" horiz-adv-x="1781" 
d="M123 717q0 151 60 289t162 238.5t245 160t301 59.5t301 -59.5t245 -160t162 -238.5t60 -289q0 -202 -101.5 -374t-278.5 -273t-388 -101t-388 101t-278.5 273t-101.5 374zM307 717q0 -156 79.5 -290.5t214 -214t290.5 -79.5t290.5 79.5t214 214t79.5 290.5t-79.5 290.5
t-214 213.5t-290.5 79t-290.5 -79t-214 -213.5t-79.5 -290.5zM604 328v778h338q114 0 195.5 -77.5t81.5 -178.5q0 -46 -15 -85t-36 -62t-42 -39.5t-36 -22.5l-15 -6l174 -307h-205l-143 266h-102v-266h-195zM799 768h133q38 0 60 22t22 60t-22 60t-60 22h-133v-164z" />
    <glyph glyph-name="macron" unicode="&#xaf;" horiz-adv-x="778" 
d="M61 1260v204h656v-204h-656z" />
    <glyph glyph-name="degree" unicode="&#xb0;" horiz-adv-x="778" 
d="M72 1147q0 124 93.5 215.5t223.5 91.5t224 -91.5t94 -215.5t-94 -215.5t-224 -91.5t-223.5 91.5t-93.5 215.5zM266 1147q0 -61 34 -97t89 -36t89 36t34 97t-34 97t-89 36t-89 -36t-34 -97z" />
    <glyph glyph-name="plusminus" unicode="&#xb1;" horiz-adv-x="1075" 
d="M72 0v236h932v-236h-932zM72 676v256h348v328h235v-328h349v-256h-349v-328h-235v328h-348z" />
    <glyph glyph-name="uni00B2" unicode="&#xb2;" horiz-adv-x="675" 
d="M61 1446q2 8 7 22t26 49t49 61.5t80 48.5t115 22q121 0 193.5 -67t72.5 -169q0 -52 -21.5 -94t-56.5 -71.5t-71 -52.5l-77 -50q-40 -26 -61 -49h277v-185h-522q0 69 18 126t47 95t63.5 69t69.5 55l64 45q29 22 47 47.5t18 54.5q0 31 -22.5 51.5t-59.5 20.5
q-27 0 -52.5 -20.5t-37.5 -40.5l-12 -21z" />
    <glyph glyph-name="uni00B3" unicode="&#xb3;" horiz-adv-x="686" 
d="M51 1034l113 113q2 -3 6 -8.5t19 -20t31.5 -25t44 -19.5t57.5 -9q49 0 73.5 20t24.5 52q0 82 -113 82h-71v153h71q82 0 82 51q0 62 -82 62q-32 0 -65.5 -18t-50.5 -36l-17 -18l-102 113q3 5 9.5 13.5t30.5 29.5t51 37t72.5 29.5t94.5 13.5q116 0 190 -62t74 -143
q0 -29 -9.5 -54t-23 -41t-27 -27.5t-22.5 -16.5l-10 -5q5 -2 12.5 -5.5t26.5 -17.5t34 -32t27 -50t12 -69q0 -96 -74.5 -160.5t-201.5 -64.5q-60 0 -112 13.5t-82.5 33.5t-53 39.5t-30.5 32.5z" />
    <glyph glyph-name="acute" unicode="&#xb4;" horiz-adv-x="573" 
d="M61 1137l164 307h287l-225 -307h-226z" />
    <glyph glyph-name="mu" unicode="&#xb5;" horiz-adv-x="1218" 
d="M123 -430v1434h276v-564q0 -90 53.5 -147t131.5 -57q87 0 140.5 61.5t53.5 173.5v533h277v-707q0 -31 20 -51.5t51 -20.5q9 0 19 2.5t16 5.5l6 3v-236q-41 -20 -102 -20q-57 0 -103.5 16t-72 38t-42.5 44.5t-23 38.5l-5 16l-11 -16q-8 -11 -36 -37.5t-61 -46.5
t-89.5 -36.5t-119.5 -16.5q-27 0 -53 5t-38 10l-12 5v-430h-276z" />
    <glyph glyph-name="paragraph" unicode="&#xb6;" horiz-adv-x="1249" 
d="M61 1065q0 146 111.5 257.5t257.5 111.5h666v-1639h-246v1372h-174v-1372h-246v901q-146 0 -257.5 111.5t-111.5 257.5z" />
    <glyph glyph-name="periodcentered" unicode="&#xb7;" horiz-adv-x="409" 
d="M41 502q0 62 48 107.5t116 45.5t116 -45.5t48 -107.5t-48 -108t-116 -46t-116 46t-48 108z" />
    <glyph glyph-name="cedilla" unicode="&#xb8;" horiz-adv-x="573" 
d="M61 -379l62 113q7 -6 19.5 -14.5t50 -22.5t73.5 -14q72 0 72 51t-72 51q-14 0 -26.5 -2.5t-18.5 -4.5l-6 -3l-51 61l92 205h143l-71 -143q7 0 19.5 -1t44.5 -10.5t56 -26t44 -52t20 -84.5q0 -87 -60 -141t-165 -54q-39 0 -76.5 9.5t-63.5 23t-46 27t-30 23.5z" />
    <glyph glyph-name="uni00B9" unicode="&#xb9;" horiz-adv-x="471" 
d="M51 1393v153q63 7 104 35.5t50 56.5h164v-727h-195v482h-123z" />
    <glyph glyph-name="ordmasculine" unicode="&#xba;" horiz-adv-x="778" 
d="M51 1116q0 138 100 238t238 100t238 -100t100 -238t-100 -238t-238 -100t-238 100t-100 238zM246 1116q0 -68 40.5 -110.5t102.5 -42.5t102.5 42.5t40.5 110.5t-40.5 111t-102.5 43t-102.5 -43t-40.5 -111z" />
    <glyph glyph-name="guillemotright" unicode="&#xbb;" horiz-adv-x="1126" 
d="M82 133l256 359l-256 358h266l256 -358l-256 -359h-266zM522 133l256 359l-256 358h266l256 -358l-256 -359h-266z" />
    <glyph glyph-name="onequarter" unicode="&#xbc;" horiz-adv-x="1443" 
d="M72 1188v153q62 7 103 36t50 57h164v-727h-194v481h-123zM133 0l891 1434h256l-891 -1434h-256zM799 133v174l317 420h205v-420h72v-174h-72v-133h-195v133h-327zM993 307h133v174z" />
    <glyph glyph-name="onehalf" unicode="&#xbd;" horiz-adv-x="1525" 
d="M72 1188v153q62 7 103 36t50 57h164v-727h-194v481h-123zM133 0l891 1434h256l-891 -1434h-256zM911 535q2 8 7 21.5t26 48.5t49 61.5t80 48.5t115 22q121 0 193.5 -66.5t72.5 -168.5q0 -52 -21.5 -94t-56.5 -71.5t-71 -52.5l-77 -50q-40 -27 -61 -50h277v-184h-522
q0 69 18 126t47 95t63.5 69t69.5 55l64 45q29 22 47 47.5t18 54.5q0 31 -22 51t-60 20q-27 0 -52.5 -20.5t-37.5 -40.5l-12 -21z" />
    <glyph glyph-name="threequarters" unicode="&#xbe;" horiz-adv-x="1566" 
d="M41 829l113 113q2 -3 6 -8.5t18.5 -20t31.5 -25t44 -19.5t57 -9q49 0 74 20t25 52q0 82 -113 82h-72v153h72q82 0 82 52q0 61 -82 61q-32 0 -65.5 -18t-50.5 -36l-17 -18l-103 113q3 5 9.5 13.5t30.5 29.5t51 37t72.5 29.5t94.5 13.5q116 0 190.5 -62t74.5 -143
q0 -29 -9.5 -54t-23 -40.5t-27 -27t-22.5 -16.5l-10 -5q5 -2 12.5 -5.5t26.5 -17.5t34 -32t27 -50t12 -69q0 -96 -75 -161t-201 -65q-60 0 -112 13.5t-82.5 33t-53 39.5t-30.5 34zM256 0l891 1434h256l-891 -1434h-256zM922 133v174l317 420h205v-420h72v-174h-72v-133h-195
v133h-327zM1116 307h133v174z" />
    <glyph glyph-name="questiondown" unicode="&#xbf;" horiz-adv-x="972" 
d="M51 -51q0 77 20.5 140.5t53 107t71.5 81t78.5 71t72 67.5t53 79t20.5 99h276q21 -51 21 -92q0 -60 -19 -110t-50 -84t-68 -64t-74 -56.5t-68 -53.5t-50 -64t-19 -80q0 -64 51 -109t133 -45q55 0 100 17t71 41t44 48t24 41l7 17l256 -113q-2 -7 -6.5 -19.5t-23.5 -49
t-42.5 -69t-66 -73t-92.5 -69t-123.5 -48.5t-157.5 -20q-108 0 -201.5 34t-156.5 90.5t-98.5 131t-35.5 154.5zM410 870q0 62 47.5 108t115.5 46t116 -46t48 -108t-48 -107.5t-116 -45.5t-115.5 45.5t-47.5 107.5z" />
    <glyph glyph-name="Agrave" unicode="&#xc0;" horiz-adv-x="1495" 
d="M20 0l564 1434h327l564 -1434h-328l-123 338h-553l-123 -338h-328zM399 1915h287l164 -307h-225zM573 604h349l-174 471z" />
    <glyph glyph-name="Aacute" unicode="&#xc1;" horiz-adv-x="1495" 
d="M20 0l564 1434h327l564 -1434h-328l-123 338h-553l-123 -338h-328zM573 604h349l-174 471zM645 1608l164 307h287l-226 -307h-225z" />
    <glyph glyph-name="Acircumflex" unicode="&#xc2;" horiz-adv-x="1495" 
d="M20 0l564 1434h327l564 -1434h-328l-123 338h-553l-123 -338h-328zM369 1608l245 307h246l246 -307h-246l-123 164l-123 -164h-245zM573 604h349l-174 471z" />
    <glyph glyph-name="Atilde" unicode="&#xc3;" horiz-adv-x="1495" 
d="M20 0l564 1434h327l564 -1434h-328l-123 338h-553l-123 -338h-328zM379 1597q0 155 59.5 231.5t159.5 76.5q47 0 88 -17.5t64.5 -39t53 -39t56.5 -17.5q72 0 72 113h174q0 -154 -59 -231t-156 -77q-48 0 -88.5 16t-63.5 35.5t-53.5 35.5t-60.5 16q-33 0 -52.5 -25.5
t-19.5 -77.5h-174zM573 604h349l-174 471z" />
    <glyph glyph-name="Adieresis" unicode="&#xc4;" horiz-adv-x="1495" 
d="M20 0l564 1434h327l564 -1434h-328l-123 338h-553l-123 -338h-328zM379 1751q0 62 46 108t107 46q62 0 108 -46.5t46 -107.5t-46 -107.5t-108 -46.5q-61 0 -107 46t-46 108zM573 604h349l-174 471zM829 1751q0 61 46.5 107.5t107.5 46.5t107.5 -46.5t46.5 -107.5
t-46.5 -107.5t-107.5 -46.5t-107.5 46.5t-46.5 107.5z" />
    <glyph glyph-name="Aring" unicode="&#xc5;" horiz-adv-x="1495" 
d="M20 0l564 1434h327l564 -1434h-328l-123 338h-553l-123 -338h-328zM522 1772q0 93 68.5 159t167.5 66t167 -66t68 -159t-68 -159.5t-167 -66.5t-167.5 66.5t-68.5 159.5zM573 604h349l-174 471zM676 1772q0 -38 22 -60t60 -22t60 22t22 60t-22 59.5t-60 21.5t-60 -21.5
t-22 -59.5z" />
    <glyph glyph-name="AE" unicode="&#xc6;" horiz-adv-x="2048" 
d="M-61 0l798 1434h1198v-267h-675v-307h512v-256h-512v-338h696v-266h-1004v348h-501l-185 -348h-327zM594 614h358v553h-51z" />
    <glyph glyph-name="Ccedilla" unicode="&#xc7;" horiz-adv-x="1546" 
d="M102 717q0 152 60.5 289.5t163.5 238t248 160t307 59.5q81 0 158 -16t134.5 -41t108.5 -55.5t85.5 -61t59.5 -55.5t37 -41l11 -16l-195 -195q-5 8 -16 22t-48 49.5t-79.5 62.5t-112 49t-143.5 22q-199 0 -335 -136t-136 -335t136 -335t335 -136q77 0 148.5 21t118.5 51
t83 60.5t53 51.5l16 21l185 -195q-8 -11 -23 -29t-68.5 -65.5t-114 -84.5t-158.5 -69.5t-203 -36.5l-37 -73q7 0 19.5 -1t44.5 -10.5t56 -26t44 -52t20 -84.5q0 -87 -60 -141t-165 -54q-39 0 -76.5 9.5t-63.5 23t-46 27t-30 23.5l-10 9l62 113q7 -6 19.5 -14.5t50 -22.5
t73.5 -14q72 0 72 51t-72 51q-14 0 -26.5 -2.5t-18.5 -4.5l-6 -3l-51 61l61 139q-192 23 -346.5 127.5t-242 266t-87.5 348.5z" />
    <glyph glyph-name="Egrave" unicode="&#xc8;" horiz-adv-x="1361" 
d="M184 0v1434h1055v-277h-747v-287h583v-276h-583v-318h768v-276h-1076zM399 1915h287l164 -307h-225z" />
    <glyph glyph-name="Eacute" unicode="&#xc9;" horiz-adv-x="1361" 
d="M184 0v1434h1055v-277h-747v-287h583v-276h-583v-318h768v-276h-1076zM604 1608l164 307h287l-226 -307h-225z" />
    <glyph glyph-name="Ecircumflex" unicode="&#xca;" horiz-adv-x="1361" 
d="M184 0v1434h1055v-277h-747v-287h583v-276h-583v-318h768v-276h-1076zM338 1608l246 307h245l246 -307h-246l-122 164l-123 -164h-246z" />
    <glyph glyph-name="Edieresis" unicode="&#xcb;" horiz-adv-x="1361" 
d="M184 0v1434h1055v-277h-747v-287h583v-276h-583v-318h768v-276h-1076zM348 1751q0 61 46 107.5t108 46.5q61 0 107 -46t46 -108t-46 -108t-107 -46q-62 0 -108 46.5t-46 107.5zM799 1751q0 62 46 108t107 46q62 0 108 -46.5t46 -107.5t-46 -107.5t-108 -46.5
q-61 0 -107 46t-46 108z" />
    <glyph glyph-name="Igrave" unicode="&#xcc;" horiz-adv-x="675" 
d="M0 1915h287l164 -307h-226zM184 0v1434h308v-1434h-308z" />
    <glyph glyph-name="Iacute" unicode="&#xcd;" horiz-adv-x="675" 
d="M184 0v1434h308v-1434h-308zM225 1608l164 307h287l-225 -307h-226z" />
    <glyph glyph-name="Icircumflex" unicode="&#xce;" horiz-adv-x="675" 
d="M-33 1608l246 307h246l246 -307h-246l-123 164l-123 -164h-246zM184 0v1434h308v-1434h-308z" />
    <glyph glyph-name="Idieresis" unicode="&#xcf;" horiz-adv-x="675" 
d="M-41 1751q0 61 46.5 107.5t107.5 46.5t107 -46t46 -108t-46 -108t-107 -46t-107.5 46.5t-46.5 107.5zM184 0v1434h308v-1434h-308zM410 1751q0 62 46 108t107 46t107.5 -46.5t46.5 -107.5t-46.5 -107.5t-107.5 -46.5t-107 46t-46 108z" />
    <glyph glyph-name="Eth" unicode="&#xd0;" horiz-adv-x="1597" 
d="M51 594v246h174v594h533q206 0 375.5 -95.5t265.5 -260t96 -361.5t-96 -361.5t-265.5 -260t-375.5 -95.5h-533v594h-174zM532 276h226q178 0 304 128.5t126 312.5q0 122 -55.5 222.5t-154.5 159t-220 58.5h-226v-317h277v-246h-277v-318z" />
    <glyph glyph-name="Ntilde" unicode="&#xd1;" horiz-adv-x="1648" 
d="M184 0v1434h267l706 -912v912h307v-1434h-266l-706 911v-911h-308zM461 1597q0 155 59.5 231.5t159.5 76.5q47 0 88 -17.5t64.5 -39t53 -39t56.5 -17.5q72 0 72 113h174q0 -154 -59 -231t-156 -77q-48 0 -88.5 16t-63.5 35.5t-53.5 35.5t-60.5 16q-33 0 -52.5 -25.5
t-19.5 -77.5h-174z" />
    <glyph glyph-name="Ograve" unicode="&#xd2;" horiz-adv-x="1761" 
d="M102 717q0 152 60.5 289.5t163.5 238t248 160t307 59.5t307 -59.5t248 -160t163 -238t60 -289.5t-60 -289.5t-163 -238.5t-248 -160.5t-307 -59.5t-307 59.5t-248 160.5t-163.5 238.5t-60.5 289.5zM420 717q0 -131 61.5 -239t167.5 -170t232 -62q193 0 326.5 136
t133.5 335t-133.5 335t-326.5 136q-126 0 -232 -62t-167.5 -170t-61.5 -239zM543 1915h286l164 -307h-225z" />
    <glyph glyph-name="Oacute" unicode="&#xd3;" horiz-adv-x="1761" 
d="M102 717q0 152 60.5 289.5t163.5 238t248 160t307 59.5t307 -59.5t248 -160t163 -238t60 -289.5t-60 -289.5t-163 -238.5t-248 -160.5t-307 -59.5t-307 59.5t-248 160.5t-163.5 238.5t-60.5 289.5zM420 717q0 -131 61.5 -239t167.5 -170t232 -62q193 0 326.5 136
t133.5 335t-133.5 335t-326.5 136q-126 0 -232 -62t-167.5 -170t-61.5 -239zM778 1608l164 307h287l-225 -307h-226z" />
    <glyph glyph-name="Ocircumflex" unicode="&#xd4;" horiz-adv-x="1761" 
d="M102 717q0 152 60.5 289.5t163.5 238t248 160t307 59.5t307 -59.5t248 -160t163 -238t60 -289.5t-60 -289.5t-163 -238.5t-248 -160.5t-307 -59.5t-307 59.5t-248 160.5t-163.5 238.5t-60.5 289.5zM420 717q0 -131 61.5 -239t167.5 -170t232 -62q193 0 326.5 136
t133.5 335t-133.5 335t-326.5 136q-126 0 -232 -62t-167.5 -170t-61.5 -239zM502 1608l246 307h245l246 -307h-246l-123 164l-122 -164h-246z" />
    <glyph glyph-name="Otilde" unicode="&#xd5;" horiz-adv-x="1761" 
d="M102 717q0 152 60.5 289.5t163.5 238t248 160t307 59.5t307 -59.5t248 -160t163 -238t60 -289.5t-60 -289.5t-163 -238.5t-248 -160.5t-307 -59.5t-307 59.5t-248 160.5t-163.5 238.5t-60.5 289.5zM420 717q0 -131 61.5 -239t167.5 -170t232 -62q193 0 326.5 136
t133.5 335t-133.5 335t-326.5 136q-126 0 -232 -62t-167.5 -170t-61.5 -239zM522 1597q0 155 59.5 231.5t159.5 76.5q47 0 88 -17.5t65 -39t53.5 -39t56.5 -17.5q71 0 71 113h174q0 -154 -59 -231t-156 -77q-48 0 -88.5 16t-63.5 35.5t-53.5 35.5t-60.5 16
q-33 0 -52.5 -25.5t-19.5 -77.5h-174z" />
    <glyph glyph-name="Odieresis" unicode="&#xd6;" horiz-adv-x="1761" 
d="M102 717q0 152 60.5 289.5t163.5 238t248 160t307 59.5t307 -59.5t248 -160t163 -238t60 -289.5t-60 -289.5t-163 -238.5t-248 -160.5t-307 -59.5t-307 59.5t-248 160.5t-163.5 238.5t-60.5 289.5zM420 717q0 -131 61.5 -239t167.5 -170t232 -62q193 0 326.5 136
t133.5 335t-133.5 335t-326.5 136q-126 0 -232 -62t-167.5 -170t-61.5 -239zM502 1751q0 62 46 108t107 46t107.5 -46.5t46.5 -107.5t-46.5 -107.5t-107.5 -46.5t-107 46t-46 108zM952 1751q0 61 46 107.5t108 46.5t108 -46.5t46 -107.5t-46 -107.5t-108 -46.5t-108 46.5
t-46 107.5z" />
    <glyph glyph-name="multiply" unicode="&#xd7;" horiz-adv-x="1003" 
d="M72 369l266 266l-266 266l164 164l266 -266l266 266l164 -164l-266 -266l266 -266l-164 -164l-266 266l-266 -266z" />
    <glyph glyph-name="Oslash" unicode="&#xd8;" horiz-adv-x="1761" 
d="M82 102l174 174l-17 20q-10 12 -36.5 55.5t-47 91t-37 122.5t-16.5 152q0 152 60.5 289.5t163.5 238t248 160t307 59.5q77 0 153 -14.5t129 -36t95 -42.5t62 -35l21 -15l175 174l163 -164l-174 -174l16 -19q11 -13 37.5 -56t47 -91t37 -122.5t16.5 -151.5
q0 -152 -60 -289.5t-163 -238.5t-248 -160.5t-307 -59.5q-77 0 -153 15t-129 36t-95.5 42t-63.5 36l-20 15l-174 -174zM420 717q0 -68 15 -127t31 -84l15 -25l645 635q-11 8 -32 20t-85 32t-128 20q-126 0 -232 -62t-167.5 -170t-61.5 -239zM635 317q12 -8 33 -20t85 -31.5
t128 -19.5q193 0 326.5 136t133.5 335q0 68 -15.5 127t-30.5 84l-15 24z" />
    <glyph glyph-name="Ugrave" unicode="&#xd9;" horiz-adv-x="1597" 
d="M174 584v850h307v-850q0 -145 93 -241.5t225 -96.5t224.5 96.5t92.5 241.5v850h307v-850q0 -129 -47.5 -243t-130 -195.5t-198.5 -129t-248 -47.5t-248.5 47.5t-199 129t-130 195.5t-47.5 243zM492 1915h286l164 -307h-225z" />
    <glyph glyph-name="Uacute" unicode="&#xda;" horiz-adv-x="1597" 
d="M174 584v850h307v-850q0 -145 93 -241.5t225 -96.5t224.5 96.5t92.5 241.5v850h307v-850q0 -129 -47.5 -243t-130 -195.5t-198.5 -129t-248 -47.5t-248.5 47.5t-199 129t-130 195.5t-47.5 243zM686 1608l164 307h287l-226 -307h-225z" />
    <glyph glyph-name="Ucircumflex" unicode="&#xdb;" horiz-adv-x="1597" 
d="M174 584v850h307v-850q0 -145 93 -241.5t225 -96.5t224.5 96.5t92.5 241.5v850h307v-850q0 -129 -47.5 -243t-130 -195.5t-198.5 -129t-248 -47.5t-248.5 47.5t-199 129t-130 195.5t-47.5 243zM430 1608l246 307h246l245 -307h-245l-123 164l-123 -164h-246z" />
    <glyph glyph-name="Udieresis" unicode="&#xdc;" horiz-adv-x="1597" 
d="M174 584v850h307v-850q0 -145 93 -241.5t225 -96.5t224.5 96.5t92.5 241.5v850h307v-850q0 -129 -47.5 -243t-130 -195.5t-198.5 -129t-248 -47.5t-248.5 47.5t-199 129t-130 195.5t-47.5 243zM430 1751q0 61 46 107.5t108 46.5q61 0 107 -46t46 -108t-46 -108t-107 -46
q-62 0 -108 46.5t-46 107.5zM881 1751q0 62 46 108t107 46q62 0 108 -46.5t46 -107.5t-46 -107.5t-108 -46.5q-61 0 -107 46t-46 108z" />
    <glyph glyph-name="Yacute" unicode="&#xdd;" horiz-adv-x="1372" 
d="M20 1434h328l338 -615l338 615h328l-512 -922v-512h-308v512zM584 1608l164 307h286l-225 -307h-225z" />
    <glyph glyph-name="Thorn" unicode="&#xde;" horiz-adv-x="1413" 
d="M184 -41v1516h308v-256h317q221 0 366.5 -139t145.5 -343q0 -205 -145.5 -343t-366.5 -138h-317v-297h-308zM492 532h307q91 0 153 60t62 145t-62 145t-153 60h-307v-410z" />
    <glyph glyph-name="germandbls" unicode="&#xdf;" horiz-adv-x="1249" 
d="M133 0v1014q0 194 129 317t342 123q97 0 182 -32t143.5 -85.5t92 -124.5t33.5 -147q0 -55 -16 -103.5t-38.5 -79t-45 -53t-38.5 -31.5l-16 -10l27 -12q18 -7 62 -37.5t78 -67.5t61.5 -102t27.5 -139q0 -181 -136 -305.5t-351 -124.5h-97v266h103q83 0 138.5 51.5
t55.5 122.5q0 78 -55 131.5t-139 53.5h-103v256h21q82 0 133 44.5t51 108.5q0 70 -54 122t-130 52q-77 0 -130.5 -55t-53.5 -139v-1014h-277z" />
    <glyph glyph-name="agrave" unicode="&#xe0;" horiz-adv-x="1095" 
d="M61 266q0 122 79 204.5t218 107.5l318 57q0 64 -46 103.5t-128 39.5q-43 0 -82 -10.5t-64.5 -25.5t-44 -30t-27.5 -26l-8 -10l-153 153l9 11q5 7 24 27.5t40.5 38.5t57 40.5t73.5 39t89.5 27.5t105.5 11q190 0 310 -114t120 -285v-625h-276v102q-4 -5 -12 -13t-35 -29
t-57 -37.5t-77 -29.5t-96 -13q-150 0 -244 83.5t-94 202.5zM225 1444h287l164 -307h-225zM338 307q0 -48 33 -75t100 -27q94 0 149.5 59.5t55.5 165.5v31l-225 -41q-54 -9 -83.5 -38t-29.5 -75z" />
    <glyph glyph-name="aacute" unicode="&#xe1;" horiz-adv-x="1095" 
d="M61 266q0 122 79 204.5t218 107.5l318 57q0 64 -46 103.5t-128 39.5q-43 0 -82 -10.5t-64.5 -25.5t-44 -30t-27.5 -26l-8 -10l-153 153l9 11q5 7 24 27.5t40.5 38.5t57 40.5t73.5 39t89.5 27.5t105.5 11q190 0 310 -114t120 -285v-625h-276v102q-4 -5 -12 -13t-35 -29
t-57 -37.5t-77 -29.5t-96 -13q-150 0 -244 83.5t-94 202.5zM338 307q0 -48 33 -75t100 -27q94 0 149.5 59.5t55.5 165.5v31l-225 -41q-54 -9 -83.5 -38t-29.5 -75zM440 1137l164 307h287l-225 -307h-226z" />
    <glyph glyph-name="acircumflex" unicode="&#xe2;" horiz-adv-x="1095" 
d="M61 266q0 122 79 204.5t218 107.5l318 57q0 64 -46 103.5t-128 39.5q-43 0 -82 -10.5t-64.5 -25.5t-44 -30t-27.5 -26l-8 -10l-153 153l9 11q5 7 24 27.5t40.5 38.5t57 40.5t73.5 39t89.5 27.5t105.5 11q190 0 310 -114t120 -285v-625h-276v102q-4 -5 -12 -13t-35 -29
t-57 -37.5t-77 -29.5t-96 -13q-150 0 -244 83.5t-94 202.5zM184 1137l246 307h246l246 -307h-246l-123 163l-123 -163h-246zM338 307q0 -48 33 -75t100 -27q94 0 149.5 59.5t55.5 165.5v31l-225 -41q-54 -9 -83.5 -38t-29.5 -75z" />
    <glyph glyph-name="atilde" unicode="&#xe3;" horiz-adv-x="1095" 
d="M61 266q0 122 79 204.5t218 107.5l318 57q0 64 -46 103.5t-128 39.5q-43 0 -82 -10.5t-64.5 -25.5t-44 -30t-27.5 -26l-8 -10l-153 153l9 11q5 7 24 27.5t40.5 38.5t57 40.5t73.5 39t89.5 27.5t105.5 11q190 0 310 -114t120 -285v-625h-276v102q-4 -5 -12 -13t-35 -29
t-57 -37.5t-77 -29.5t-96 -13q-150 0 -244 83.5t-94 202.5zM205 1126q0 155 59.5 231.5t159.5 76.5q47 0 88 -17.5t64.5 -39t53 -39t56.5 -17.5q72 0 72 113h174q0 -154 -59 -231t-156 -77q-48 0 -88.5 16t-63.5 35.5t-53.5 35.5t-60.5 16q-33 0 -52.5 -25.5t-19.5 -77.5
h-174zM338 307q0 -48 33 -75t100 -27q94 0 149.5 59.5t55.5 165.5v31l-225 -41q-54 -9 -83.5 -38t-29.5 -75z" />
    <glyph glyph-name="adieresis" unicode="&#xe4;" horiz-adv-x="1095" 
d="M61 266q0 122 79 204.5t218 107.5l318 57q0 64 -46 103.5t-128 39.5q-43 0 -82 -10.5t-64.5 -25.5t-44 -30t-27.5 -26l-8 -10l-153 153l9 11q5 7 24 27.5t40.5 38.5t57 40.5t73.5 39t89.5 27.5t105.5 11q190 0 310 -114t120 -285v-625h-276v102q-4 -5 -12 -13t-35 -29
t-57 -37.5t-77 -29.5t-96 -13q-150 0 -244 83.5t-94 202.5zM195 1280q0 62 46 108t107 46q62 0 108 -46t46 -108t-46 -108t-108 -46q-61 0 -107 46t-46 108zM338 307q0 -48 33 -75t100 -27q94 0 149.5 59.5t55.5 165.5v31l-225 -41q-54 -9 -83.5 -38t-29.5 -75zM645 1280
q0 62 46.5 108t107.5 46t107 -46t46 -108t-46 -108t-107 -46t-107.5 46t-46.5 108z" />
    <glyph glyph-name="aring" unicode="&#xe5;" horiz-adv-x="1095" 
d="M61 266q0 122 79 204.5t218 107.5l318 57q0 64 -46 103.5t-128 39.5q-43 0 -82 -10.5t-64.5 -25.5t-44 -30t-27.5 -26l-8 -10l-153 153l9 11q5 7 24 27.5t40.5 38.5t57 40.5t73.5 39t89.5 27.5t105.5 11q190 0 310 -114t120 -285v-625h-276v102q-4 -5 -12 -13t-35 -29
t-57 -37.5t-77 -29.5t-96 -13q-150 0 -244 83.5t-94 202.5zM338 307q0 -48 33 -75t100 -27q94 0 149.5 59.5t55.5 165.5v31l-225 -41q-54 -9 -83.5 -38t-29.5 -75zM338 1321q0 93 68 159t167 66t167.5 -66t68.5 -159t-68.5 -159t-167.5 -66t-167 66t-68 159zM492 1321
q0 -38 21.5 -60t59.5 -22t60 22t22 60t-22 60t-60 22t-59.5 -22t-21.5 -60z" />
    <glyph glyph-name="ae" unicode="&#xe6;" horiz-adv-x="1792" 
d="M61 281q0 134 116 228.5t315 94.5h204q0 184 -174 184q-43 0 -83 -11.5t-66.5 -28t-46.5 -33t-30 -27.5l-9 -12l-154 153q5 8 15.5 21t47.5 46.5t78.5 59.5t108.5 47t139 21q60 0 116 -17t93 -41t65 -48t41 -41l13 -17q5 7 15.5 18t46.5 39t75.5 50t102.5 39.5t129 17.5
q208 0 349.5 -144t141.5 -358q0 -32 -2.5 -60t-5.5 -40l-2 -12h-717q16 -82 86 -138.5t180 -56.5q46 0 89 12.5t72 30.5t51.5 36.5t32.5 31.5l11 12l144 -184q-6 -7 -18.5 -19t-53.5 -42t-86.5 -52.5t-116.5 -41.5t-145 -19q-72 0 -139.5 19t-112.5 46t-80 54t-51 46l-17 19
q-5 -7 -15 -19.5t-46 -44.5t-78 -56t-112.5 -44t-147.5 -20q-163 0 -266 89t-103 212zM328 303q0 -38 37 -68t96 -30q100 0 167.5 65t67.5 160h-184q-88 0 -136 -37t-48 -90zM983 604h451q-16 80 -76.5 132t-149.5 52t-149 -52t-76 -132z" />
    <glyph glyph-name="ccedilla" unicode="&#xe7;" horiz-adv-x="1075" 
d="M61 502q0 102 43.5 198t116 167t173.5 114t210 43q77 0 148 -21t116.5 -51t80 -60.5t49.5 -51.5l16 -21l-174 -174q-3 5 -9.5 14t-29 32t-48 40.5t-66 32t-83.5 14.5q-108 0 -187 -80.5t-79 -195.5t79 -196t187 -81q43 0 84.5 13.5t69.5 33.5t49.5 39.5t32.5 32.5l10 14
l164 -174l-14 -20q-10 -13 -44.5 -45.5t-73.5 -58.5t-103.5 -49.5t-133.5 -28.5l-41 -84q7 0 19.5 -1t44.5 -10.5t56 -26t44 -52t20 -84.5q0 -87 -60 -141t-165 -54q-62 0 -118 23t-81 46l-26 23l61 113q7 -6 19.5 -14.5t50.5 -22.5t74 -14q71 0 71 51t-71 51
q-14 0 -26.5 -2.5t-18.5 -4.5l-6 -3l-52 61l68 154q-189 34 -318 181t-129 331z" />
    <glyph glyph-name="egrave" unicode="&#xe8;" horiz-adv-x="1167" 
d="M61 502q0 141 70.5 261.5t191 190.5t261.5 70q215 0 358 -143.5t143 -358.5q0 -32 -2.5 -60t-4.5 -40l-3 -12h-727q16 -82 86 -138.5t180 -56.5q49 0 94.5 12.5t75.5 30.5t53 36.5t33 31.5l11 12l143 -184q-6 -7 -18 -19t-53.5 -42t-88 -52.5t-120 -41.5t-150.5 -19
q-109 0 -208 41.5t-170 111.5t-113 166.5t-42 202.5zM266 1444h287l164 -307h-225zM348 604h461q-16 80 -76 132t-149 52q-88 0 -149.5 -51.5t-86.5 -132.5z" />
    <glyph glyph-name="eacute" unicode="&#xe9;" horiz-adv-x="1167" 
d="M61 502q0 141 70.5 261.5t191 190.5t261.5 70q215 0 358 -143.5t143 -358.5q0 -32 -2.5 -60t-4.5 -40l-3 -12h-727q16 -82 86 -138.5t180 -56.5q49 0 94.5 12.5t75.5 30.5t53 36.5t33 31.5l11 12l143 -184q-6 -7 -18 -19t-53.5 -42t-88 -52.5t-120 -41.5t-150.5 -19
q-109 0 -208 41.5t-170 111.5t-113 166.5t-42 202.5zM348 604h461q-16 80 -76 132t-149 52q-88 0 -149.5 -51.5t-86.5 -132.5zM481 1137l164 307h287l-225 -307h-226z" />
    <glyph glyph-name="ecircumflex" unicode="&#xea;" horiz-adv-x="1167" 
d="M61 502q0 141 70.5 261.5t191 190.5t261.5 70q215 0 358 -143.5t143 -358.5q0 -32 -2.5 -60t-4.5 -40l-3 -12h-727q16 -82 86 -138.5t180 -56.5q49 0 94.5 12.5t75.5 30.5t53 36.5t33 31.5l11 12l143 -184q-6 -7 -18 -19t-53.5 -42t-88 -52.5t-120 -41.5t-150.5 -19
q-109 0 -208 41.5t-170 111.5t-113 166.5t-42 202.5zM213 1137l246 307h246l245 -307h-245l-123 163l-123 -163h-246zM348 604h461q-16 80 -76 132t-149 52q-88 0 -149.5 -51.5t-86.5 -132.5z" />
    <glyph glyph-name="edieresis" unicode="&#xeb;" horiz-adv-x="1167" 
d="M61 502q0 141 70.5 261.5t191 190.5t261.5 70q215 0 358 -143.5t143 -358.5q0 -32 -2.5 -60t-4.5 -40l-3 -12h-727q16 -82 86 -138.5t180 -56.5q49 0 94.5 12.5t75.5 30.5t53 36.5t33 31.5l11 12l143 -184q-6 -7 -18 -19t-53.5 -42t-88 -52.5t-120 -41.5t-150.5 -19
q-109 0 -208 41.5t-170 111.5t-113 166.5t-42 202.5zM215 1280q0 62 46.5 108t107.5 46t107 -46t46 -108t-46 -108t-107 -46t-107.5 46t-46.5 108zM348 604h461q-16 80 -76 132t-149 52q-88 0 -149.5 -51.5t-86.5 -132.5zM666 1280q0 62 46 108t107 46t107.5 -46t46.5 -108
t-46.5 -108t-107.5 -46t-107 46t-46 108z" />
    <glyph glyph-name="igrave" unicode="&#xec;" horiz-adv-x="563" 
d="M-72 1444h287l164 -307h-225zM123 0v1004h276v-1004h-276z" />
    <glyph glyph-name="iacute" unicode="&#xed;" horiz-adv-x="563" 
d="M123 0v1004h276v-1004h-276zM143 1137l164 307h287l-225 -307h-226z" />
    <glyph glyph-name="icircumflex" unicode="&#xee;" horiz-adv-x="563" 
d="M-113 1137l246 307h246l246 -307h-246l-123 163l-123 -163h-246zM123 0v1004h276v-1004h-276z" />
    <glyph glyph-name="idieresis" unicode="&#xef;" horiz-adv-x="563" 
d="M-109 1280q0 62 46.5 108t107.5 46t107.5 -46t46.5 -108t-46.5 -108t-107.5 -46t-107.5 46t-46.5 108zM123 0v1004h276v-1004h-276zM342 1280q0 62 46 108t108 46q61 0 107 -46t46 -108t-46 -108t-107 -46q-62 0 -108 46t-46 108z" />
    <glyph glyph-name="eth" unicode="&#xf0;" 
d="M61 471q0 131 67.5 244.5t183.5 180.5t251 67q68 0 124.5 -13t78.5 -26l22 -13h11q-32 68 -88.5 140t-96.5 109l-41 38l-225 -113l-123 134l226 112q-92 83 -205 144l225 102q50 -32 99 -67.5t72 -55.5l24 -20l215 102l123 -133l-216 -103q7 -6 19 -18t47.5 -52t67 -84.5
t70.5 -115t67.5 -143.5t47.5 -169t19 -194q0 -238 -150.5 -391t-381.5 -153q-150 0 -273 67t-191.5 179.5t-68.5 244.5zM338 471q0 -107 69.5 -176.5t176.5 -69.5t176 69.5t69 176.5t-69 176.5t-176 69.5t-176.5 -69.5t-69.5 -176.5z" />
    <glyph glyph-name="ntilde" unicode="&#xf1;" horiz-adv-x="1218" 
d="M123 0v1004h276v-123q4 6 12 15.5t36 34t58.5 43.5t79.5 34.5t101 15.5q172 0 280.5 -118.5t108.5 -321.5v-584h-276v553q0 92 -55 148.5t-140 56.5q-94 0 -149.5 -61.5t-55.5 -174.5v-522h-276zM246 1137q0 155 59.5 231t159.5 76q47 0 88 -17.5t64.5 -39t53 -39
t56.5 -17.5q72 0 72 113h174q0 -154 -58.5 -230.5t-156.5 -76.5q-48 0 -88.5 16t-63.5 35t-53.5 35t-60.5 16q-33 0 -52.5 -25t-19.5 -77h-174z" />
    <glyph glyph-name="ograve" unicode="&#xf2;" horiz-adv-x="1208" 
d="M61 502q0 102 43.5 198t115 167t170.5 114t204 43q141 0 264 -72.5t195.5 -193t72.5 -256.5t-72.5 -256.5t-195.5 -193t-264 -72.5q-105 0 -204 43t-170.5 114t-115 167t-43.5 198zM256 1444h287l164 -307h-226zM348 502q0 -114 72.5 -190t173.5 -76t173.5 76t72.5 190
t-72.5 190t-173.5 76t-173.5 -76t-72.5 -190z" />
    <glyph glyph-name="oacute" unicode="&#xf3;" horiz-adv-x="1208" 
d="M61 502q0 102 43.5 198t115 167t170.5 114t204 43q141 0 264 -72.5t195.5 -193t72.5 -256.5t-72.5 -256.5t-195.5 -193t-264 -72.5q-105 0 -204 43t-170.5 114t-115 167t-43.5 198zM348 502q0 -114 72.5 -190t173.5 -76t173.5 76t72.5 190t-72.5 190t-173.5 76
t-173.5 -76t-72.5 -190zM481 1137l164 307h287l-225 -307h-226z" />
    <glyph glyph-name="ocircumflex" unicode="&#xf4;" horiz-adv-x="1208" 
d="M61 502q0 102 43.5 198t115 167t170.5 114t204 43q141 0 264 -72.5t195.5 -193t72.5 -256.5t-72.5 -256.5t-195.5 -193t-264 -72.5q-105 0 -204 43t-170.5 114t-115 167t-43.5 198zM225 1137l246 307h246l246 -307h-246l-123 163l-123 -163h-246zM348 502
q0 -114 72.5 -190t173.5 -76t173.5 76t72.5 190t-72.5 190t-173.5 76t-173.5 -76t-72.5 -190z" />
    <glyph glyph-name="otilde" unicode="&#xf5;" horiz-adv-x="1208" 
d="M61 502q0 102 43.5 198t115 167t170.5 114t204 43q141 0 264 -72.5t195.5 -193t72.5 -256.5t-72.5 -256.5t-195.5 -193t-264 -72.5q-105 0 -204 43t-170.5 114t-115 167t-43.5 198zM236 1137q0 155 59.5 231t159.5 76q47 0 88 -17.5t64.5 -39t53 -39t56.5 -17.5
q71 0 71 113h175q0 -154 -58.5 -230.5t-156.5 -76.5q-48 0 -89 16t-64 35t-53.5 35t-60.5 16q-33 0 -52 -25t-19 -77h-174zM348 502q0 -114 72.5 -190t173.5 -76t173.5 76t72.5 190t-72.5 190t-173.5 76t-173.5 -76t-72.5 -190z" />
    <glyph glyph-name="odieresis" unicode="&#xf6;" horiz-adv-x="1208" 
d="M61 502q0 102 43.5 198t115 167t170.5 114t204 43q141 0 264 -72.5t195.5 -193t72.5 -256.5t-72.5 -256.5t-195.5 -193t-264 -72.5q-105 0 -204 43t-170.5 114t-115 167t-43.5 198zM225 1290q0 62 46.5 108t107.5 46t107 -46t46 -108t-46 -107.5t-107 -45.5
q-62 0 -108 46t-46 107zM348 502q0 -114 72.5 -190t173.5 -76t173.5 76t72.5 190t-72.5 190t-173.5 76t-173.5 -76t-72.5 -190zM676 1290q0 62 46 108t107 46t107.5 -46t46.5 -108q0 -61 -46 -107t-108 -46q-61 0 -107 45.5t-46 107.5z" />
    <glyph glyph-name="divide" unicode="&#xf7;" horiz-adv-x="1064" 
d="M72 492v215h921v-215h-921zM369 225q0 62 47.5 108t115.5 46t116 -46t48 -108t-48 -107.5t-116 -45.5t-115.5 45.5t-47.5 107.5zM369 973q0 62 47.5 107.5t115.5 45.5t116 -45.5t48 -107.5t-48 -108t-116 -46t-115.5 46t-47.5 108z" />
    <glyph glyph-name="oslash" unicode="&#xf8;" horiz-adv-x="1208" 
d="M51 72l113 123q-4 5 -11 15t-25 42.5t-31.5 66.5t-24.5 84t-11 99q0 102 43.5 198t115 167t170.5 114t204 43q52 0 99 -8.5t78 -20.5t54.5 -24t34.5 -21l10 -8l123 133l144 -143l-113 -123q4 -5 11 -15t24.5 -42.5t31 -66.5t24.5 -84t11 -99q0 -136 -72.5 -256.5
t-195.5 -193t-264 -72.5q-52 0 -99 8.5t-78 20t-55 23.5t-34 20l-11 9l-122 -133zM348 502q0 -27 5 -53t11 -38l5 -12l317 349q-41 20 -92 20q-101 0 -173.5 -76t-72.5 -190zM502 256q41 -20 92 -20q101 0 173.5 76t72.5 190q0 27 -5 52.5t-11 37.5l-5 12z" />
    <glyph glyph-name="ugrave" unicode="&#xf9;" 
d="M123 403v601h276v-574q0 -85 55 -139.5t140 -54.5q94 0 149.5 61t55.5 174v533h276v-1004h-276v102q-4 -5 -12 -13t-36 -29t-58.5 -37.5t-79.5 -29.5t-101 -13q-171 0 -280 115.5t-109 307.5zM256 1444h287l164 -307h-226z" />
    <glyph glyph-name="uacute" unicode="&#xfa;" 
d="M123 403v601h276v-574q0 -85 55 -139.5t140 -54.5q94 0 149.5 61t55.5 174v533h276v-1004h-276v102q-4 -5 -12 -13t-36 -29t-58.5 -37.5t-79.5 -29.5t-101 -13q-171 0 -280 115.5t-109 307.5zM471 1137l164 307h287l-226 -307h-225z" />
    <glyph glyph-name="ucircumflex" unicode="&#xfb;" 
d="M123 403v601h276v-574q0 -85 55 -139.5t140 -54.5q94 0 149.5 61t55.5 174v533h276v-1004h-276v102q-4 -5 -12 -13t-36 -29t-58.5 -37.5t-79.5 -29.5t-101 -13q-171 0 -280 115.5t-109 307.5zM215 1137l246 307h246l245 -307h-245l-123 163l-123 -163h-246z" />
    <glyph glyph-name="udieresis" unicode="&#xfc;" 
d="M123 403v601h276v-574q0 -85 55 -139.5t140 -54.5q94 0 149.5 61t55.5 174v533h276v-1004h-276v102q-4 -5 -12 -13t-36 -29t-58.5 -37.5t-79.5 -29.5t-101 -13q-171 0 -280 115.5t-109 307.5zM215 1290q0 62 46.5 108t107.5 46t107 -46t46 -108t-46 -107.5t-107 -45.5
q-62 0 -108 46t-46 107zM666 1290q0 62 46 108t107 46t107.5 -46t46.5 -108q0 -61 -46 -107t-108 -46q-61 0 -107 45.5t-46 107.5z" />
    <glyph glyph-name="yacute" unicode="&#xfd;" horiz-adv-x="1064" 
d="M0 1004h287l235 -666l236 666h286l-399 -1065q-70 -186 -165 -277.5t-224 -91.5q-45 0 -88.5 8t-64.5 16l-21 7v245q41 -20 102 -20q124 0 174 113l31 71zM420 1137l164 307h286l-225 -307h-225z" />
    <glyph glyph-name="thorn" unicode="&#xfe;" horiz-adv-x="1269" 
d="M133 -430v1864h277v-553q4 6 12 15.5t36 34t60 43.5t83 34.5t106 15.5q95 0 183 -40t153.5 -109t105 -166.5t39.5 -206.5t-39.5 -206.5t-105 -166.5t-153.5 -109t-183 -40q-55 0 -105.5 14.5t-84 35.5t-59 42.5t-36.5 35.5l-12 15v-553h-277zM410 502q0 -121 71.5 -199
t173.5 -78t174 78t72 199q0 120 -72 198t-174 78t-173.5 -77.5t-71.5 -198.5z" />
    <glyph glyph-name="ydieresis" unicode="&#xff;" horiz-adv-x="1064" 
d="M0 1004h287l235 -666l236 666h286l-399 -1065q-70 -186 -165 -277.5t-224 -91.5q-45 0 -88.5 8t-64.5 16l-21 7v245q41 -20 102 -20q124 0 174 113l31 71zM154 1290q0 62 46 108t107 46t107.5 -46t46.5 -108q0 -61 -46 -107t-108 -46q-61 0 -107 45.5t-46 107.5z
M604 1290q0 62 46 108t108 46q61 0 107 -46t46 -108t-45.5 -107.5t-107.5 -45.5t-108 46t-46 107z" />
    <glyph glyph-name="OE" unicode="&#x152;" horiz-adv-x="2088" 
d="M102 717q0 144 58.5 276t158.5 229t241.5 154.5t299.5 57.5h1116v-267h-665v-303h501v-256h-501v-342h686v-266h-1137q-158 0 -299.5 57.5t-241.5 154.5t-158.5 229t-58.5 276zM410 717q0 -104 37 -189.5t99.5 -139.5t143 -83t170.5 -29h144v881h-144
q-191 0 -320.5 -127.5t-129.5 -312.5z" />
    <glyph glyph-name="oe" unicode="&#x153;" horiz-adv-x="1935" 
d="M61 502q0 141 70.5 261.5t191 190.5t261.5 70q69 0 134.5 -19t109.5 -46t78.5 -54t50.5 -46l16 -19q5 7 15.5 19.5t47 44.5t77 56t105.5 44t134 20q105 0 199 -40t159.5 -107.5t104 -160t38.5 -194.5q0 -32 -2.5 -60t-4.5 -40l-3 -12h-727q16 -82 86 -138.5t180 -56.5
q49 0 94.5 12.5t75.5 30.5t53 36.5t33 31.5l11 12l143 -174q-6 -7 -18 -19.5t-53.5 -44.5t-88 -56t-120 -44t-150.5 -20q-74 0 -141.5 18t-111 43.5t-75.5 51t-46 43.5l-15 18l-17 -19q-10 -12 -47.5 -42t-79 -52.5t-108 -41.5t-137.5 -19q-141 0 -261.5 70t-191 190.5
t-70.5 261.5zM348 502q0 -120 70.5 -198.5t165.5 -78.5t165 78.5t70 198.5t-70 198t-165 78t-165.5 -78t-70.5 -198zM1116 604h461q-15 87 -75 141t-150 54q-89 0 -150.5 -53.5t-85.5 -141.5z" />
    <glyph glyph-name="Ydieresis" unicode="&#x178;" horiz-adv-x="1372" 
d="M20 1434h328l338 -615l338 615h328l-512 -922v-512h-308v512zM317 1751q0 61 46.5 107.5t107.5 46.5t107.5 -46.5t46.5 -107.5t-46.5 -107.5t-107.5 -46.5t-107.5 46.5t-46.5 107.5zM768 1751q0 61 46 107.5t108 46.5q61 0 107 -46t46 -108t-46 -108t-107 -46
q-62 0 -108 46.5t-46 107.5z" />
    <glyph glyph-name="circumflex" unicode="&#x2c6;" horiz-adv-x="860" 
d="M61 1137l246 307h246l246 -307h-246l-123 163l-123 -163h-246z" />
    <glyph glyph-name="tilde" unicode="&#x2dc;" horiz-adv-x="849" 
d="M61 1147q0 155 60 231t160 76q47 0 88 -17.5t64.5 -39t53 -39t56.5 -17.5q71 0 71 113h174q0 -154 -58.5 -230.5t-156.5 -76.5q-48 0 -88.5 16t-63.5 35t-53.5 35t-60.5 16q-33 0 -52 -25t-19 -77h-175z" />
    <glyph glyph-name="uni2000" unicode="&#x2000;" horiz-adv-x="998" 
 />
    <glyph glyph-name="uni2001" unicode="&#x2001;" horiz-adv-x="1997" 
 />
    <glyph glyph-name="uni2002" unicode="&#x2002;" horiz-adv-x="998" 
 />
    <glyph glyph-name="uni2003" unicode="&#x2003;" horiz-adv-x="1997" 
 />
    <glyph glyph-name="uni2004" unicode="&#x2004;" horiz-adv-x="665" 
 />
    <glyph glyph-name="uni2005" unicode="&#x2005;" horiz-adv-x="499" 
 />
    <glyph glyph-name="uni2006" unicode="&#x2006;" horiz-adv-x="332" 
 />
    <glyph glyph-name="uni2007" unicode="&#x2007;" horiz-adv-x="332" 
 />
    <glyph glyph-name="uni2008" unicode="&#x2008;" horiz-adv-x="249" 
 />
    <glyph glyph-name="uni2009" unicode="&#x2009;" horiz-adv-x="399" 
 />
    <glyph glyph-name="uni200A" unicode="&#x200a;" horiz-adv-x="110" 
 />
    <glyph glyph-name="uni2010" unicode="&#x2010;" horiz-adv-x="880" 
d="M72 481v246h737v-246h-737z" />
    <glyph glyph-name="uni2011" unicode="&#x2011;" horiz-adv-x="880" 
d="M72 481v246h737v-246h-737z" />
    <glyph glyph-name="figuredash" unicode="&#x2012;" horiz-adv-x="880" 
d="M72 481v246h737v-246h-737z" />
    <glyph glyph-name="endash" unicode="&#x2013;" horiz-adv-x="1013" 
d="M72 481v240h870v-240h-870z" />
    <glyph glyph-name="emdash" unicode="&#x2014;" horiz-adv-x="1505" 
d="M72 481v240h1362v-240h-1362z" />
    <glyph glyph-name="quoteleft" unicode="&#x2018;" horiz-adv-x="532" 
d="M41 1034l276 441l175 -103l-216 -471z" />
    <glyph glyph-name="quoteright" unicode="&#x2019;" horiz-adv-x="532" 
d="M41 1004l215 471l236 -134l-277 -440z" />
    <glyph glyph-name="quotesinglbase" unicode="&#x201a;" horiz-adv-x="532" 
d="M-10 -174l225 471l225 -133l-266 -430z" />
    <glyph glyph-name="quotedblleft" unicode="&#x201c;" horiz-adv-x="931" 
d="M41 1034l276 441l164 -93l-215 -471zM451 1034l276 441l164 -93l-215 -471z" />
    <glyph glyph-name="quotedblright" unicode="&#x201d;" horiz-adv-x="931" 
d="M41 1004l215 471l225 -123l-276 -441zM451 1004l215 471l225 -123l-277 -441z" />
    <glyph glyph-name="quotedblbase" unicode="&#x201e;" horiz-adv-x="921" 
d="M-10 -174l215 471l225 -133l-276 -430zM399 -174l215 471l226 -133l-277 -430z" />
    <glyph glyph-name="bullet" unicode="&#x2022;" horiz-adv-x="880" 
d="M184 492q0 107 74.5 181.5t181.5 74.5t181.5 -74.5t74.5 -181.5t-74.5 -181.5t-181.5 -74.5t-181.5 74.5t-74.5 181.5z" />
    <glyph glyph-name="ellipsis" unicode="&#x2026;" horiz-adv-x="1617" 
d="M92 133q0 62 48 108t116 46t116 -46t48 -108t-48 -107.5t-116 -45.5t-116 45.5t-48 107.5zM645 133q0 62 48 108t116 46t116 -46t48 -108t-48 -107.5t-116 -45.5t-116 45.5t-48 107.5zM1198 133q0 62 48 108t116 46t116 -46t48 -108t-48 -107.5t-116 -45.5t-116 45.5
t-48 107.5z" />
    <glyph glyph-name="uni202F" unicode="&#x202f;" horiz-adv-x="399" 
 />
    <glyph glyph-name="guilsinglleft" unicode="&#x2039;" horiz-adv-x="696" 
d="M82 492l256 358h276l-256 -358l256 -359h-276z" />
    <glyph glyph-name="guilsinglright" unicode="&#x203a;" horiz-adv-x="696" 
d="M82 133l256 359l-256 358h276l256 -358l-256 -359h-276z" />
    <glyph glyph-name="uni205F" unicode="&#x205f;" horiz-adv-x="499" 
 />
    <glyph glyph-name="Euro" unicode="&#x20ac;" horiz-adv-x="1536" 
d="M72 461v184h164v143h-164v185h194l11 28q8 18 37.5 69t64.5 97t95 103t127 97.5t162.5 68.5t199.5 28q97 0 184.5 -23t143 -56t96.5 -66.5t59 -56.5l18 -23l-184 -184l-14 15q-8 10 -38.5 34.5t-64.5 43.5t-88.5 34.5t-111.5 15.5q-74 0 -138.5 -23t-103.5 -56t-67 -66.5
t-39 -56.5l-11 -23h369v-185h-430v-143h430v-184h-369q4 -9 11.5 -24t38 -54t68 -68.5t102.5 -54t139 -24.5q57 0 112 16t92 38t66 44.5t43 38.5l14 16l174 -184q-6 -10 -18.5 -25.5t-57.5 -56.5t-98 -72t-141.5 -56.5t-185.5 -25.5q-104 0 -199 27t-163.5 70.5t-126.5 96
t-95.5 105t-63.5 96t-37 70.5l-12 27h-194z" />
    <glyph glyph-name="trademark" unicode="&#x2122;" horiz-adv-x="1454" 
d="M20 1260v174h533v-174h-174v-461h-184v461h-175zM635 799v635h164l194 -256l195 256h164v-635h-185v342l-174 -219l-174 219v-342h-184z" />
    <glyph glyph-name="uni25FC" unicode="&#x25fc;" horiz-adv-x="1003" 
d="M0 0v1004h1004v-1004h-1004z" />
    <glyph glyph-name="uniFB02" unicode="&#xfb02;" horiz-adv-x="1259" 
d="M41 727v246h143v61q0 186 128.5 308t332.5 122q205 0 333 -121.5t128 -308.5v-1034h-277v1034q0 70 -54 122t-130 52t-130 -52t-54 -122v-61h225v-246h-225v-727h-277v727h-143z" />
    <glyph glyph-name="glyph2" horiz-adv-x="682" 
 />
    </font>
</defs>
</svg>
